<mxfile host="app.diagrams.net" modified="2023-04-06T09:19:14.752Z" agent="Mozilla/5.0 (Windows NT 10.0; Win64; x64) AppleWebKit/537.36 (KHTML, like Gecko) Chrome/111.0.0.0 Safari/537.36" etag="CesEO86O4X9y6dCv0hiV" version="21.1.4" type="github">
  <diagram name="Page-1" id="c4acf3e9-155e-7222-9cf6-157b1a14988f">
    <mxGraphModel dx="989" dy="533" grid="1" gridSize="10" guides="1" tooltips="1" connect="1" arrows="1" fold="1" page="1" pageScale="1" pageWidth="850" pageHeight="1100" background="none" math="0" shadow="0">
      <root>
        <mxCell id="0" />
        <mxCell id="1" parent="0" />
        <mxCell id="5d2195bd80daf111-38" style="edgeStyle=orthogonalEdgeStyle;rounded=0;html=1;dashed=1;labelBackgroundColor=none;startFill=0;endArrow=open;endFill=0;endSize=10;fontFamily=Verdana;fontSize=10;" parent="1" source="17acba5748e5396b-2" target="5d2195bd80daf111-9" edge="1">
          <mxGeometry relative="1" as="geometry">
            <Array as="points">
              <mxPoint x="640" y="1261" />
            </Array>
          </mxGeometry>
        </mxCell>
        <mxCell id="5d2195bd80daf111-40" style="edgeStyle=orthogonalEdgeStyle;rounded=0;html=1;dashed=1;labelBackgroundColor=none;startFill=0;endArrow=open;endFill=0;endSize=10;fontFamily=Verdana;fontSize=10;" parent="1" source="17acba5748e5396b-2" target="5d2195bd80daf111-1" edge="1">
          <mxGeometry relative="1" as="geometry">
            <Array as="points" />
          </mxGeometry>
        </mxCell>
        <mxCell id="17acba5748e5396b-2" value="Classname" style="swimlane;html=1;fontStyle=0;childLayout=stackLayout;horizontal=1;startSize=26;fillColor=none;horizontalStack=0;resizeParent=1;resizeLast=0;collapsible=1;marginBottom=0;swimlaneFillColor=#ffffff;rounded=0;shadow=0;comic=0;labelBackgroundColor=none;strokeWidth=1;fontFamily=Verdana;fontSize=10;align=center;" parent="1" vertex="1">
          <mxGeometry x="700" y="1168" width="160" height="186" as="geometry" />
        </mxCell>
        <mxCell id="17acba5748e5396b-3" value="+ field: type" style="text;html=1;strokeColor=none;fillColor=none;align=left;verticalAlign=top;spacingLeft=4;spacingRight=4;whiteSpace=wrap;overflow=hidden;rotatable=0;points=[[0,0.5],[1,0.5]];portConstraint=eastwest;" parent="17acba5748e5396b-2" vertex="1">
          <mxGeometry y="26" width="160" height="26" as="geometry" />
        </mxCell>
        <mxCell id="17acba5748e5396b-4" value="+ field: type" style="text;html=1;strokeColor=none;fillColor=none;align=left;verticalAlign=top;spacingLeft=4;spacingRight=4;whiteSpace=wrap;overflow=hidden;rotatable=0;points=[[0,0.5],[1,0.5]];portConstraint=eastwest;" parent="17acba5748e5396b-2" vertex="1">
          <mxGeometry y="52" width="160" height="26" as="geometry" />
        </mxCell>
        <mxCell id="17acba5748e5396b-6" value="+ field: type" style="text;html=1;strokeColor=none;fillColor=none;align=left;verticalAlign=top;spacingLeft=4;spacingRight=4;whiteSpace=wrap;overflow=hidden;rotatable=0;points=[[0,0.5],[1,0.5]];portConstraint=eastwest;" parent="17acba5748e5396b-2" vertex="1">
          <mxGeometry y="78" width="160" height="26" as="geometry" />
        </mxCell>
        <mxCell id="17acba5748e5396b-9" value="+ field: type" style="text;html=1;strokeColor=none;fillColor=none;align=left;verticalAlign=top;spacingLeft=4;spacingRight=4;whiteSpace=wrap;overflow=hidden;rotatable=0;points=[[0,0.5],[1,0.5]];portConstraint=eastwest;" parent="17acba5748e5396b-2" vertex="1">
          <mxGeometry y="104" width="160" height="26" as="geometry" />
        </mxCell>
        <mxCell id="17acba5748e5396b-10" value="+ field: type" style="text;html=1;strokeColor=none;fillColor=none;align=left;verticalAlign=top;spacingLeft=4;spacingRight=4;whiteSpace=wrap;overflow=hidden;rotatable=0;points=[[0,0.5],[1,0.5]];portConstraint=eastwest;" parent="17acba5748e5396b-2" vertex="1">
          <mxGeometry y="130" width="160" height="26" as="geometry" />
        </mxCell>
        <mxCell id="17acba5748e5396b-8" value="+ field: type" style="text;html=1;strokeColor=none;fillColor=none;align=left;verticalAlign=top;spacingLeft=4;spacingRight=4;whiteSpace=wrap;overflow=hidden;rotatable=0;points=[[0,0.5],[1,0.5]];portConstraint=eastwest;" parent="17acba5748e5396b-2" vertex="1">
          <mxGeometry y="156" width="160" height="26" as="geometry" />
        </mxCell>
        <mxCell id="17acba5748e5396b-44" value="Classname" style="swimlane;html=1;fontStyle=0;childLayout=stackLayout;horizontal=1;startSize=26;fillColor=none;horizontalStack=0;resizeParent=1;resizeLast=0;collapsible=1;marginBottom=0;swimlaneFillColor=#ffffff;rounded=0;shadow=0;comic=0;labelBackgroundColor=none;strokeWidth=1;fontFamily=Verdana;fontSize=10;align=center;" parent="1" vertex="1">
          <mxGeometry x="700" y="1518" width="160" height="83" as="geometry" />
        </mxCell>
        <mxCell id="17acba5748e5396b-45" value="+ field: type" style="text;html=1;strokeColor=none;fillColor=none;align=left;verticalAlign=top;spacingLeft=4;spacingRight=4;whiteSpace=wrap;overflow=hidden;rotatable=0;points=[[0,0.5],[1,0.5]];portConstraint=eastwest;" parent="17acba5748e5396b-44" vertex="1">
          <mxGeometry y="26" width="160" height="26" as="geometry" />
        </mxCell>
        <mxCell id="17acba5748e5396b-47" value="+ field: type" style="text;html=1;strokeColor=none;fillColor=none;align=left;verticalAlign=top;spacingLeft=4;spacingRight=4;whiteSpace=wrap;overflow=hidden;rotatable=0;points=[[0,0.5],[1,0.5]];portConstraint=eastwest;" parent="17acba5748e5396b-44" vertex="1">
          <mxGeometry y="52" width="160" height="26" as="geometry" />
        </mxCell>
        <mxCell id="5d2195bd80daf111-39" style="edgeStyle=orthogonalEdgeStyle;rounded=0;html=1;dashed=1;labelBackgroundColor=none;startFill=0;endArrow=open;endFill=0;endSize=10;fontFamily=Verdana;fontSize=10;" parent="1" source="5d2195bd80daf111-1" target="17acba5748e5396b-44" edge="1">
          <mxGeometry relative="1" as="geometry" />
        </mxCell>
        <mxCell id="5d2195bd80daf111-1" value="Classname" style="swimlane;html=1;fontStyle=0;childLayout=stackLayout;horizontal=1;startSize=26;fillColor=none;horizontalStack=0;resizeParent=1;resizeLast=0;collapsible=1;marginBottom=0;swimlaneFillColor=#ffffff;rounded=0;shadow=0;comic=0;labelBackgroundColor=none;strokeWidth=1;fontFamily=Verdana;fontSize=10;align=center;" parent="1" vertex="1">
          <mxGeometry x="700" y="1378" width="160" height="110" as="geometry" />
        </mxCell>
        <mxCell id="5d2195bd80daf111-2" value="+ field: type" style="text;html=1;strokeColor=none;fillColor=none;align=left;verticalAlign=top;spacingLeft=4;spacingRight=4;whiteSpace=wrap;overflow=hidden;rotatable=0;points=[[0,0.5],[1,0.5]];portConstraint=eastwest;" parent="5d2195bd80daf111-1" vertex="1">
          <mxGeometry y="26" width="160" height="26" as="geometry" />
        </mxCell>
        <mxCell id="5d2195bd80daf111-3" value="+ field: type" style="text;html=1;strokeColor=none;fillColor=none;align=left;verticalAlign=top;spacingLeft=4;spacingRight=4;whiteSpace=wrap;overflow=hidden;rotatable=0;points=[[0,0.5],[1,0.5]];portConstraint=eastwest;" parent="5d2195bd80daf111-1" vertex="1">
          <mxGeometry y="52" width="160" height="26" as="geometry" />
        </mxCell>
        <mxCell id="5d2195bd80daf111-4" value="+ field: type" style="text;html=1;strokeColor=none;fillColor=none;align=left;verticalAlign=top;spacingLeft=4;spacingRight=4;whiteSpace=wrap;overflow=hidden;rotatable=0;points=[[0,0.5],[1,0.5]];portConstraint=eastwest;" parent="5d2195bd80daf111-1" vertex="1">
          <mxGeometry y="78" width="160" height="26" as="geometry" />
        </mxCell>
        <mxCell id="5d2195bd80daf111-41" style="edgeStyle=orthogonalEdgeStyle;rounded=0;html=1;dashed=1;labelBackgroundColor=none;startFill=0;endArrow=open;endFill=0;endSize=10;fontFamily=Verdana;fontSize=10;" parent="1" source="5d2195bd80daf111-5" target="17acba5748e5396b-2" edge="1">
          <mxGeometry relative="1" as="geometry">
            <Array as="points" />
          </mxGeometry>
        </mxCell>
        <mxCell id="5d2195bd80daf111-5" value="Classname" style="swimlane;html=1;fontStyle=0;childLayout=stackLayout;horizontal=1;startSize=26;fillColor=none;horizontalStack=0;resizeParent=1;resizeLast=0;collapsible=1;marginBottom=0;swimlaneFillColor=#ffffff;rounded=0;shadow=0;comic=0;labelBackgroundColor=none;strokeWidth=1;fontFamily=Verdana;fontSize=10;align=center;" parent="1" vertex="1">
          <mxGeometry x="700" y="1060" width="160" height="83" as="geometry" />
        </mxCell>
        <mxCell id="5d2195bd80daf111-6" value="+ field: type" style="text;html=1;strokeColor=none;fillColor=none;align=left;verticalAlign=top;spacingLeft=4;spacingRight=4;whiteSpace=wrap;overflow=hidden;rotatable=0;points=[[0,0.5],[1,0.5]];portConstraint=eastwest;" parent="5d2195bd80daf111-5" vertex="1">
          <mxGeometry y="26" width="160" height="26" as="geometry" />
        </mxCell>
        <mxCell id="5d2195bd80daf111-7" value="+ field: type" style="text;html=1;strokeColor=none;fillColor=none;align=left;verticalAlign=top;spacingLeft=4;spacingRight=4;whiteSpace=wrap;overflow=hidden;rotatable=0;points=[[0,0.5],[1,0.5]];portConstraint=eastwest;" parent="5d2195bd80daf111-5" vertex="1">
          <mxGeometry y="52" width="160" height="26" as="geometry" />
        </mxCell>
        <mxCell id="5d2195bd80daf111-8" value="&amp;laquo;interface&amp;raquo;&lt;br&gt;&lt;b&gt;Name&lt;/b&gt;" style="html=1;rounded=0;shadow=0;comic=0;labelBackgroundColor=none;strokeWidth=1;fontFamily=Verdana;fontSize=10;align=center;" parent="1" vertex="1">
          <mxGeometry x="540" y="1544" width="110" height="50" as="geometry" />
        </mxCell>
        <mxCell id="5d2195bd80daf111-35" style="edgeStyle=orthogonalEdgeStyle;rounded=0;html=1;dashed=1;labelBackgroundColor=none;startFill=0;endArrow=open;endFill=0;endSize=10;fontFamily=Verdana;fontSize=10;" parent="1" source="5d2195bd80daf111-9" target="5d2195bd80daf111-8" edge="1">
          <mxGeometry relative="1" as="geometry">
            <Array as="points">
              <mxPoint x="595" y="1510" />
              <mxPoint x="595" y="1510" />
            </Array>
          </mxGeometry>
        </mxCell>
        <mxCell id="5d2195bd80daf111-36" style="edgeStyle=orthogonalEdgeStyle;rounded=0;html=1;dashed=1;labelBackgroundColor=none;startFill=0;endArrow=open;endFill=0;endSize=10;fontFamily=Verdana;fontSize=10;" parent="1" source="5d2195bd80daf111-9" target="5d2195bd80daf111-13" edge="1">
          <mxGeometry relative="1" as="geometry">
            <Array as="points">
              <mxPoint x="600" y="1060" />
            </Array>
          </mxGeometry>
        </mxCell>
        <mxCell id="5d2195bd80daf111-9" value="&lt;p style=&quot;margin:0px;margin-top:4px;text-align:center;&quot;&gt;&lt;i&gt;&amp;lt;&amp;lt;Interface&amp;gt;&amp;gt;&lt;/i&gt;&lt;br/&gt;&lt;b&gt;Interface&lt;/b&gt;&lt;/p&gt;&lt;hr size=&quot;1&quot;/&gt;&lt;p style=&quot;margin:0px;margin-left:4px;&quot;&gt;+ field1: Type&lt;br/&gt;+ field2: Type&lt;/p&gt;&lt;hr size=&quot;1&quot;/&gt;&lt;p style=&quot;margin:0px;margin-left:4px;&quot;&gt;+ method1(Type): Type&lt;br/&gt;+ method2(Type, Type): Type&lt;/p&gt;" style="verticalAlign=top;align=left;overflow=fill;fontSize=12;fontFamily=Helvetica;html=1;rounded=0;shadow=0;comic=0;labelBackgroundColor=none;strokeWidth=1" parent="1" vertex="1">
          <mxGeometry x="465" y="1363" width="190" height="140" as="geometry" />
        </mxCell>
        <mxCell id="5d2195bd80daf111-10" value="&lt;p style=&quot;margin:0px;margin-top:4px;text-align:center;&quot;&gt;&lt;i&gt;&amp;lt;&amp;lt;Interface&amp;gt;&amp;gt;&lt;/i&gt;&lt;br/&gt;&lt;b&gt;Interface&lt;/b&gt;&lt;/p&gt;&lt;hr size=&quot;1&quot;/&gt;&lt;p style=&quot;margin:0px;margin-left:4px;&quot;&gt;+ field1: Type&lt;br/&gt;+ field2: Type&lt;/p&gt;&lt;hr size=&quot;1&quot;/&gt;&lt;p style=&quot;margin:0px;margin-left:4px;&quot;&gt;+ method1(Type): Type&lt;br/&gt;+ method2(Type, Type): Type&lt;/p&gt;" style="verticalAlign=top;align=left;overflow=fill;fontSize=12;fontFamily=Helvetica;html=1;rounded=0;shadow=0;comic=0;labelBackgroundColor=none;strokeWidth=1" parent="1" vertex="1">
          <mxGeometry x="400" y="1112" width="190" height="140" as="geometry" />
        </mxCell>
        <mxCell id="5d2195bd80daf111-34" style="edgeStyle=orthogonalEdgeStyle;rounded=0;html=1;dashed=1;labelBackgroundColor=none;startFill=0;endArrow=open;endFill=0;endSize=10;fontFamily=Verdana;fontSize=10;" parent="1" source="5d2195bd80daf111-11" target="5d2195bd80daf111-8" edge="1">
          <mxGeometry relative="1" as="geometry">
            <Array as="points">
              <mxPoint x="460" y="1569" />
              <mxPoint x="460" y="1569" />
            </Array>
          </mxGeometry>
        </mxCell>
        <mxCell id="5d2195bd80daf111-11" value="&lt;p style=&quot;margin:0px;margin-top:4px;text-align:center;&quot;&gt;&lt;i&gt;&amp;lt;&amp;lt;Interface&amp;gt;&amp;gt;&lt;/i&gt;&lt;br/&gt;&lt;b&gt;Interface&lt;/b&gt;&lt;/p&gt;&lt;hr size=&quot;1&quot;/&gt;&lt;p style=&quot;margin:0px;margin-left:4px;&quot;&gt;+ field1: Type&lt;br/&gt;+ field2: Type&lt;/p&gt;&lt;hr size=&quot;1&quot;/&gt;&lt;p style=&quot;margin:0px;margin-left:4px;&quot;&gt;+ method1(Type): Type&lt;br/&gt;+ method2(Type, Type): Type&lt;/p&gt;" style="verticalAlign=top;align=left;overflow=fill;fontSize=12;fontFamily=Helvetica;html=1;rounded=0;shadow=0;comic=0;labelBackgroundColor=none;strokeWidth=1" parent="1" vertex="1">
          <mxGeometry x="240" y="1448" width="190" height="140" as="geometry" />
        </mxCell>
        <mxCell id="5d2195bd80daf111-12" value="&lt;p style=&quot;margin:0px;margin-top:4px;text-align:center;&quot;&gt;&lt;i&gt;&amp;lt;&amp;lt;Interface&amp;gt;&amp;gt;&lt;/i&gt;&lt;br/&gt;&lt;b&gt;Interface&lt;/b&gt;&lt;/p&gt;&lt;hr size=&quot;1&quot;/&gt;&lt;p style=&quot;margin:0px;margin-left:4px;&quot;&gt;+ field1: Type&lt;br/&gt;+ field2: Type&lt;/p&gt;&lt;hr size=&quot;1&quot;/&gt;&lt;p style=&quot;margin:0px;margin-left:4px;&quot;&gt;+ method1(Type): Type&lt;br/&gt;+ method2(Type, Type): Type&lt;/p&gt;" style="verticalAlign=top;align=left;overflow=fill;fontSize=12;fontFamily=Helvetica;html=1;rounded=0;shadow=0;comic=0;labelBackgroundColor=none;strokeWidth=1" parent="1" vertex="1">
          <mxGeometry x="240" y="1284" width="190" height="140" as="geometry" />
        </mxCell>
        <mxCell id="5d2195bd80daf111-13" value="&amp;laquo;interface&amp;raquo;&lt;br&gt;&lt;b&gt;Name&lt;/b&gt;" style="html=1;rounded=0;shadow=0;comic=0;labelBackgroundColor=none;strokeWidth=1;fontFamily=Verdana;fontSize=10;align=center;" parent="1" vertex="1">
          <mxGeometry x="430" y="1035" width="110" height="50" as="geometry" />
        </mxCell>
        <mxCell id="5d2195bd80daf111-14" value="&amp;laquo;interface&amp;raquo;&lt;br&gt;&lt;b&gt;Name&lt;/b&gt;" style="html=1;rounded=0;shadow=0;comic=0;labelBackgroundColor=none;strokeWidth=1;fontFamily=Verdana;fontSize=10;align=center;" parent="1" vertex="1">
          <mxGeometry x="430" y="961" width="110" height="50" as="geometry" />
        </mxCell>
        <mxCell id="5d2195bd80daf111-26" style="edgeStyle=orthogonalEdgeStyle;rounded=0;html=1;dashed=1;labelBackgroundColor=none;startFill=0;endArrow=open;endFill=0;endSize=10;fontFamily=Verdana;fontSize=10;" parent="1" target="5d2195bd80daf111-17" edge="1">
          <mxGeometry relative="1" as="geometry">
            <Array as="points" />
            <mxPoint x="690" y="840" as="sourcePoint" />
          </mxGeometry>
        </mxCell>
        <mxCell id="5d2195bd80daf111-15" value="&lt;p style=&quot;margin:0px;margin-top:4px;text-align:center;&quot;&gt;&lt;i&gt;&amp;lt;&amp;lt;Interface&amp;gt;&amp;gt;&lt;/i&gt;&lt;br/&gt;&lt;b&gt;Interface&lt;/b&gt;&lt;/p&gt;&lt;hr size=&quot;1&quot;/&gt;&lt;p style=&quot;margin:0px;margin-left:4px;&quot;&gt;+ field1: Type&lt;br/&gt;+ field2: Type&lt;/p&gt;&lt;hr size=&quot;1&quot;/&gt;&lt;p style=&quot;margin:0px;margin-left:4px;&quot;&gt;+ method1(Type): Type&lt;br/&gt;+ method2(Type, Type): Type&lt;/p&gt;" style="verticalAlign=top;align=left;overflow=fill;fontSize=12;fontFamily=Helvetica;html=1;rounded=0;shadow=0;comic=0;labelBackgroundColor=none;strokeWidth=1" parent="1" vertex="1">
          <mxGeometry x="80" y="480" width="190" height="140" as="geometry" />
        </mxCell>
        <mxCell id="5d2195bd80daf111-16" value="Text" style="text;html=1;resizable=0;points=[];autosize=1;align=left;verticalAlign=top;spacingTop=-4;fontSize=10;fontFamily=Verdana;fontColor=#000000;" parent="1" vertex="1">
          <mxGeometry x="500" y="994" width="40" height="10" as="geometry" />
        </mxCell>
        <mxCell id="5d2195bd80daf111-17" value="&amp;laquo;interface&amp;raquo;&lt;br&gt;&lt;b&gt;Name&lt;/b&gt;" style="html=1;rounded=0;shadow=0;comic=0;labelBackgroundColor=none;strokeWidth=1;fontFamily=Verdana;fontSize=10;align=center;" parent="1" vertex="1">
          <mxGeometry x="735" y="815" width="110" height="50" as="geometry" />
        </mxCell>
        <mxCell id="5d2195bd80daf111-25" style="edgeStyle=orthogonalEdgeStyle;rounded=0;html=1;dashed=1;labelBackgroundColor=none;startFill=0;endArrow=open;endFill=0;endSize=10;fontFamily=Verdana;fontSize=10;" parent="1" source="5d2195bd80daf111-19" edge="1">
          <mxGeometry relative="1" as="geometry">
            <Array as="points">
              <mxPoint x="420" y="880" />
              <mxPoint x="420" y="840" />
            </Array>
            <mxPoint x="500" y="840" as="targetPoint" />
          </mxGeometry>
        </mxCell>
        <mxCell id="5d2195bd80daf111-27" style="edgeStyle=orthogonalEdgeStyle;rounded=0;html=1;exitX=1;exitY=0.75;dashed=1;labelBackgroundColor=none;startFill=0;endArrow=open;endFill=0;endSize=10;fontFamily=Verdana;fontSize=10;" parent="1" source="5d2195bd80daf111-19" target="5d2195bd80daf111-14" edge="1">
          <mxGeometry relative="1" as="geometry">
            <Array as="points">
              <mxPoint x="370" y="915" />
              <mxPoint x="370" y="980" />
            </Array>
          </mxGeometry>
        </mxCell>
        <mxCell id="5d2195bd80daf111-19" value="&lt;p style=&quot;margin:0px;margin-top:4px;text-align:center;&quot;&gt;&lt;i&gt;&amp;lt;&amp;lt;Interface&amp;gt;&amp;gt;&lt;/i&gt;&lt;br/&gt;&lt;b&gt;Interface&lt;/b&gt;&lt;/p&gt;&lt;hr size=&quot;1&quot;/&gt;&lt;p style=&quot;margin:0px;margin-left:4px;&quot;&gt;+ field1: Type&lt;br/&gt;+ field2: Type&lt;/p&gt;&lt;hr size=&quot;1&quot;/&gt;&lt;p style=&quot;margin:0px;margin-left:4px;&quot;&gt;+ method1(Type): Type&lt;br/&gt;+ method2(Type, Type): Type&lt;/p&gt;" style="verticalAlign=top;align=left;overflow=fill;fontSize=12;fontFamily=Helvetica;html=1;rounded=0;shadow=0;comic=0;labelBackgroundColor=none;strokeWidth=1" parent="1" vertex="1">
          <mxGeometry x="110" y="810" width="190" height="140" as="geometry" />
        </mxCell>
        <mxCell id="5d2195bd80daf111-28" style="edgeStyle=orthogonalEdgeStyle;rounded=0;html=1;dashed=1;labelBackgroundColor=none;startFill=0;endArrow=open;endFill=0;endSize=10;fontFamily=Verdana;fontSize=10;" parent="1" source="5d2195bd80daf111-20" target="5d2195bd80daf111-14" edge="1">
          <mxGeometry relative="1" as="geometry">
            <Array as="points">
              <mxPoint x="370" y="1030" />
              <mxPoint x="370" y="1000" />
            </Array>
          </mxGeometry>
        </mxCell>
        <mxCell id="5d2195bd80daf111-29" style="edgeStyle=orthogonalEdgeStyle;rounded=0;html=1;dashed=1;labelBackgroundColor=none;startFill=0;endArrow=open;endFill=0;endSize=10;fontFamily=Verdana;fontSize=10;" parent="1" source="5d2195bd80daf111-20" target="5d2195bd80daf111-13" edge="1">
          <mxGeometry relative="1" as="geometry" />
        </mxCell>
        <mxCell id="5d2195bd80daf111-30" style="edgeStyle=orthogonalEdgeStyle;rounded=0;html=1;dashed=1;labelBackgroundColor=none;startFill=0;endArrow=open;endFill=0;endSize=10;fontFamily=Verdana;fontSize=10;" parent="1" source="5d2195bd80daf111-20" target="5d2195bd80daf111-10" edge="1">
          <mxGeometry relative="1" as="geometry">
            <Array as="points">
              <mxPoint x="350" y="1120" />
              <mxPoint x="350" y="1182" />
            </Array>
          </mxGeometry>
        </mxCell>
        <mxCell id="5d2195bd80daf111-31" style="edgeStyle=orthogonalEdgeStyle;rounded=0;html=1;dashed=1;labelBackgroundColor=none;startFill=0;endArrow=open;endFill=0;endSize=10;fontFamily=Verdana;fontSize=10;" parent="1" source="5d2195bd80daf111-20" target="5d2195bd80daf111-5" edge="1">
          <mxGeometry relative="1" as="geometry">
            <Array as="points">
              <mxPoint x="400" y="1100" />
              <mxPoint x="400" y="1100" />
            </Array>
          </mxGeometry>
        </mxCell>
        <mxCell id="5d2195bd80daf111-32" style="edgeStyle=orthogonalEdgeStyle;rounded=0;html=1;dashed=1;labelBackgroundColor=none;startFill=0;endArrow=open;endFill=0;endSize=10;fontFamily=Verdana;fontSize=10;" parent="1" source="5d2195bd80daf111-20" target="5d2195bd80daf111-12" edge="1">
          <mxGeometry relative="1" as="geometry">
            <Array as="points">
              <mxPoint x="220" y="1320" />
            </Array>
          </mxGeometry>
        </mxCell>
        <mxCell id="5d2195bd80daf111-33" style="edgeStyle=orthogonalEdgeStyle;rounded=0;html=1;dashed=1;labelBackgroundColor=none;startFill=0;endArrow=open;endFill=0;endSize=10;fontFamily=Verdana;fontSize=10;" parent="1" source="5d2195bd80daf111-20" target="5d2195bd80daf111-11" edge="1">
          <mxGeometry relative="1" as="geometry">
            <Array as="points">
              <mxPoint x="190" y="1518" />
            </Array>
          </mxGeometry>
        </mxCell>
        <mxCell id="5d2195bd80daf111-20" value="&lt;p style=&quot;margin:0px;margin-top:4px;text-align:center;&quot;&gt;&lt;i&gt;&amp;lt;&amp;lt;Interface&amp;gt;&amp;gt;&lt;/i&gt;&lt;br/&gt;&lt;b&gt;Interface&lt;/b&gt;&lt;/p&gt;&lt;hr size=&quot;1&quot;/&gt;&lt;p style=&quot;margin:0px;margin-left:4px;&quot;&gt;+ field1: Type&lt;br/&gt;+ field2: Type&lt;/p&gt;&lt;hr size=&quot;1&quot;/&gt;&lt;p style=&quot;margin:0px;margin-left:4px;&quot;&gt;+ method1(Type): Type&lt;br/&gt;+ method2(Type, Type): Type&lt;/p&gt;" style="verticalAlign=top;align=left;overflow=fill;fontSize=12;fontFamily=Helvetica;html=1;rounded=0;shadow=0;comic=0;labelBackgroundColor=none;strokeWidth=1" parent="1" vertex="1">
          <mxGeometry x="110" y="990" width="190" height="140" as="geometry" />
        </mxCell>
        <mxCell id="5d2195bd80daf111-37" style="edgeStyle=orthogonalEdgeStyle;rounded=0;html=1;dashed=1;labelBackgroundColor=none;startFill=0;endArrow=open;endFill=0;endSize=10;fontFamily=Verdana;fontSize=10;" parent="1" source="5d2195bd80daf111-5" target="5d2195bd80daf111-9" edge="1">
          <mxGeometry relative="1" as="geometry">
            <Array as="points">
              <mxPoint x="620" y="1130" />
            </Array>
          </mxGeometry>
        </mxCell>
        <mxCell id="LU1Nu7ws03AOdTx3HO9U-3" value="&lt;p style=&quot;margin:0px;margin-top:4px;text-align:center;&quot;&gt;&lt;b&gt;xml_asset&lt;/b&gt;&lt;br&gt;&lt;/p&gt;&lt;hr size=&quot;1&quot;&gt;&lt;p style=&quot;margin:0px;margin-left:4px;&quot;&gt;+ field1:&amp;nbsp;&lt;br&gt;+ field2:&amp;nbsp;&lt;/p&gt;&lt;hr size=&quot;1&quot;&gt;资产&lt;span style=&quot;background-color: initial;&quot;&gt;&lt;br&gt;&lt;/span&gt;&lt;br&gt;&lt;p style=&quot;margin:0px;margin-left:4px;&quot;&gt;&lt;br&gt;&lt;/p&gt;" style="verticalAlign=top;align=left;overflow=fill;fontSize=12;fontFamily=Helvetica;html=1;rounded=0;shadow=0;comic=0;labelBackgroundColor=none;strokeWidth=1" parent="1" vertex="1">
          <mxGeometry x="650" y="10" width="150" height="140" as="geometry" />
        </mxCell>
        <mxCell id="-d8P1ZClJNF3-0VWvZ5_-1" value="" style="group" vertex="1" connectable="0" parent="1">
          <mxGeometry x="15" y="70" width="450" height="220" as="geometry" />
        </mxCell>
        <mxCell id="5d2195bd80daf111-18" value="&lt;p style=&quot;margin:0px;margin-top:4px;text-align:center;&quot;&gt;&lt;b&gt;xml_subregion&lt;/b&gt;&lt;br&gt;&lt;/p&gt;&lt;hr size=&quot;1&quot;&gt;&lt;p style=&quot;margin:0px;margin-left:4px;&quot;&gt;+ Region:&amp;nbsp;&lt;br&gt;+ NormalEnergizingFeeder:馈线(2个)&amp;nbsp;&lt;/p&gt;&lt;hr size=&quot;1&quot;&gt;&amp;nbsp; 配电站（&lt;span style=&quot;background-color: initial;&quot;&gt;PD_30000005）&lt;br&gt;&lt;/span&gt;&lt;br&gt;&lt;p style=&quot;margin:0px;margin-left:4px;&quot;&gt;&lt;br&gt;&lt;/p&gt;" style="verticalAlign=top;align=left;overflow=fill;fontSize=12;fontFamily=Helvetica;html=1;rounded=0;shadow=0;comic=0;labelBackgroundColor=none;strokeWidth=1" parent="-d8P1ZClJNF3-0VWvZ5_-1" vertex="1">
          <mxGeometry width="450" height="220" as="geometry" />
        </mxCell>
        <mxCell id="LU1Nu7ws03AOdTx3HO9U-4" value="" style="shape=image;verticalLabelPosition=bottom;labelBackgroundColor=default;verticalAlign=top;aspect=fixed;imageAspect=0;image=data:image/png,iVBORw0KGgoAAAANSUhEUgAAA98AAADBCAYAAADWxwPGAAAgAElEQVR4nOy9f4wkx33o9xn+iEPbsWO/I8+CZFuhZ+75lstADhz7seedZFPig2aPCC4OsbINE2vDdA+hszATE/tgBgOdaOx7NHxg0hOJImelwFnQsKwFxRCBOGM8ySfpzjOyHeH5Ibfcda7n0X6OBOt4hzxJiCPIMq/yR3VPV/+aqZ6d2dnd+36Awc5211R9v9+q7qrq77eqS0ophSAIgiAIgiAIgiAIc+OORQsgCIIgCIIgCIIgCMedhU++21WothcthRAi9SEIgiAIgiAIgjB77lq0AEeVXh1WNsHxoN9YtDRCLtUSDADPh0Y5fb5dh+Zm9L/jwlYHMpIKxdlrw5e24fogOODAw1twJsO+V+pwKaiKky481oETGXkeh3SvlOBqxm8f9rNtM4mbPdi7Bje2db7n+9myWesxhFfW4OpgQrpEfjiwugWnkzrY5meRbq8O25vJHwbpPXhS7seCIAiCIBxSpvd8D/W8pVTdnwCN/gFPXodQr0KpFHyqWo+i3t5aB3xvPvJV92nT/eR34PUxb/oKPCf73LANTcBXoIJPf4qJd69uNKjEpzdKlJOmCu3h1OpdqcIzJbgy1EU8U4Jn6tlpUp8q7A3Hp3mxHqUpys0ebDfhvhZcUPqzugqXKoG8CRkv7cCqr9M9sAPPV+Fmhr7HIR0AbmSX8DPVxLsNz6/A69vw5mB8Wiv5hvBiBa4uw/lArvcwRt/NKL/VVdiuwN40+RUoFwdWTdt19eH7TqXlm3R9tKtQrcP0V6EgCIIgCIIdU02+h22oVmB3CVR/1iLNl/oaLG1Fcy2/le9FEW4DnKX9e7lrnahBeY72sof/10aJ9P+OE5/sqz7sVqaegJ9YDv6WgQqcBE4uxdOc6cP54EGROWFZXdYTpStDnWbVBZxo4hNOfrYzJstWstV0Hr9Qi46dPqtlfP01I2EPLg3gwVbkMT3TAgZwuXcM082YEw1t5yf78EDOc6Yi8u1dhOvAquFxPr0OJ5N6DOH1gfY2h/mdbsCDwJfaxfOzTXe6Axf6cNoQZe/V4JzR1sDu+mj0obUElRLU51hPgiAIgiAIxSbfgde4sg1bPnSyPKRJz3IJ6u2097VunE95nXtxr3SpFHgmejqKuJQ3SDLO97ImCz3YJB59XK7BluHBHrajslPHStlzJFOuUN+Jdqnq/0092lUoVWAwSDtHk3m16/Eyszw31vkxoT4m6BGzieHg7SXSTj2wNT3LvcT/SWO362OEC3UIKrTShEEzx1OdVf6c3GMdH5prOu9enVKpNPZj2vFecyJRhvsKFHt6PWMinEzTgYcduHSxmEp57L2mJ1imh/LmtaAsc+JU05O4N68dv3SLopB8Dtxr/u/rerPV4/p2wlttm9+U5e5tAm58Qg7210etAcoHNvRtI7P/EARBEARB2CfWk+9eXU/kaGlnXTnHW1ivwFLLcOwpOIdedmvSCT3PWaHbNT0QcgawvaTTre5AZQNaPqgubK5MMQ+qgTvQ8zXzt+VGFGpdDgZhTuJ86NRMsQ1rG/phhFL6t0vb6QlsPbRdaJetdFaNflC2E7dfKrqgDGfXdUR1mKYFVKpT5seE+gjpQXUN1vvxvE5dNCbWgYPXBVaMtuB3YWdlykFt6Fl2gY0qbADdwODnjFlcuwq75xJGXoNmovWFFep7etG+aZyE5+xgKOuG+doQah2UUmM/HUPGE6dITViSobf75fQqsJkIJS5CLwpj324CbtwbfmM3/6fXd49fuhGb8SUAr8zZ62orX+hZHq2zHsKLK/prrG2Vtaf9ejO+fOEqwABuFMzPutwkPV3mg+fSpwpdH2Xo9HU01EZFNp4UBEEQBGH2WE2+21VY2YGuIjbwT9Krw44HjUSaWmPK8HQnmhSfWgZnFWpB+KAD+Mn0tWhCWst5ONDxYWkX1kzn6D4GvQOgbz6MKOtJ73Iz7USNRTsGA71x9hxH8uFHbT3+wGAetDf0ZkpJ09bWYWcjnd7tRm2hXINVB/btAFxt6XXZYQXXQgP2oLmcMGhQGe4+yxyFlc9xI7alKWuvAieXownLvQ7cW7H43RCurMF1B95jucb/5rTewCD8/IKvvehszn+iedi519GbiZ0P1kqfX4WrK4fQLj29Dvs6pB6aQLRcYbuiHyK8vhzU8ZT5FU5Hfsg5MNX1UQ76keVt3T+IE1wQBEEQhFlhNflu9KG7DCsWocPLM/a6zZwyNDrRJN3fgt2N6b0czmr28SUHrhmjtk4XtlcSYefTelYyQvtLa+noglmzO4BTWZPPMiwP0g8bzs3Di3wqJ9PhNb1+O4tpJ7YHSWjcgmHnlOHJTvTvmf74Tbu2Q09rRU+UzvfTobpzo6zlexC4uhGFJd+bU20QX597XNKBtsOTnWAtMnrd9sNO3C6zpoh8gJ4Ar+gJ8EkPLnQy0hB4rIM9Ap7swI0B6fDxAvlZpwvICzkHCl8fEC0j2lkNorzGJxcEQRAEQbDGOuy81rFbE7dzCNY25tGrpx8elMvQacFgTEjmOAbb2cdTE9VaPEzc3wK2p1sHHYawx/bt2pq/5zv5QGHEEHacBUVsh5RP5Vfi7rwfS+yXwIAVCoedF8XccO3JnFdHJbmxCzgZr4+aknsTDfVE8MBuL7F52VXiIcLHJd2iKCLfzR48E0yAH+zav75rrx6EgLfibcs2v8Lljgk5L0y4p0mwvOlYvfVBEARBEIRDQbEN18I1cat6TVzSc1tbB5qJMO4h9NrakzD3TWwmbbiGXiueDDPvvQpucvA2iPbqGgaDsuTSYdAT3mpVp9GJdZj+jhdNRoftYK8uQ6YyiTD0RNk9I796Vf/eZKkSeWSGQ72Le+4U0yI/Gxot2F6L68EQ2muw3Cqe32ypgbeTeJoRVMZ+d7Of64ZrgQGz4vkPAXtt/TaA5GTKhitV/aoy05N709hxe5RfTYcum17fKxuAA+9ObA52HNKNs8vJ1eJ2tsZSvvDVZTj6FWLjQr5Nwvdvn/Tiv7HNb5pyx4acF6DXju9pkrdsSRAEQRAEYV+oafGV8lylcNPHXSe2vZdyXKV830jixc/HPq5Sqhs/5vlKdV3jvK+UY5wb0Y2Od32Vousq5Xpp+dxuhnpelBeOUl5XKS/4neNF8jheIi26jFRebka5XrrcVNlZ+XXj5x1Hqa6pe9H8JtVHLHFCDyddB8m6U0op15Q3R+9c3BzhsjLy3LRwYcWFFd118xXOaAuxxpfRruzy6+akcbIb6wy57Cj1ERIfR6kbk9Kg1AuOUrtTinejq3+fzO9ylo2VUpddI50bl+84pbvRVeozSXs7Sn0mxy6TuOFl191HUOqFjEtkknyfyckrlZ8fT5vXVmzzsy7X1MVR6iPJe1RBPCfoo/aXjSAIgiAIwkRKSim16AcAgiAIgiAIgiAIgnCcKRZ2LgiCIAiCIAiCIAhCYWTyLQiCIAiCIAiCIAhzRibfgiAIgiAIgiAIgjBn7lq0AIIgHA3C3axtOOnZv55KiCN2FgRBEARBOJ7IhmuCIAiCIAiCIAiCMGck7FwQBEEQBEEQBEEQ5oxMvgVBEARBEARBEARhzhy7yXe7CtX2oqU4uszafsemPoZQLUF7uGhBBEE4itRncP84NvfTBSH9Ww7SvwmCIBwYx27yfVRoV6FUOrod97CtO+tS+KlC7wA77mnt16sfbbvf3gzptetUqyVKpeBTrecMGIe069VRumq9TXbzPA7petRLhk1Gn+rUg+lhr0e7XaderVKq5slWQI9hj7pRb7b6lqr17PuKbX4W6Xr1LNsF6Wc0Gxm2YdOFRnkm2R16pH/bH9K/CYIgHGPUYcFXynOVwlm0IAXoKgXZH7c7+ee+p5TjzVlGXyln1jb1lXJQquvPON+iYmTZL2xHYV04Snldi98dNuZRb5PKy2rLjlJesp4t272blyZhe89RynGVmtSc/K6rwFHuqOH5qus5CpyEjL7yHBSOF7TR6P94GcclXVe5oLC56Vjge44ClOM4yiGrvILy+Z7Ox+0Gx33VdcfoizvKT9evq7rT5GeZLjwWK6PrKmDyfdyy33LJuI4OO9K/LRTp32Zc3iHv3wRBuH04FJNv39M3xuRN6ygxTYd3pAcnh+AhScp+vu4QzY7O7+q2ZaaTwUk+Lio2CQntlzdxmGRLL2Nw03XTv+l69oP6pAAOKMcsJGvidJyPzXjyHZE32S8mX9cldwId+21WXQa6mcds87MuN1O1jN8msO23fE8p3PFpDjvSvx080r/NniPXvwmCcCxZbNj5EOpVqGzDlg+drPfVBmlKRghYvQ3VajxZ3TifCrnqRaFj7TAsqw7DXhRaVu9llG2c32/IWTKMrZ4TFhaGjY10SYa79aJzvYRtkjq0q1CqwGAQz7OUsB1MsN9IiUCHjDyTZVvlZ6NvWLSF/XoXYceDfgfC6M5yDfo+0EyvZzPrPyvPYTtht9Du+9DDpj0XqbexTNvuDco1aLmw6xcsewy1Diwn6qPWAOUDG0VCPIf0XttmACyfiuJ5h9d2AJdzNbPQc7jAzrXhsUu3KArJ5yxRMf/3dxlkpcthsP1aPFzcNr+pyu3x6ibgnqOWddqm3zK42ARvPeek9G/SvyH9m/RvgiDcTixs8t2r6xswLVB9KOeshatXYKkVD+w5BwwS6TrBOd/LyKSmb3zOALaXdLrVHahsQMsH1YXNFcasa9wfwzas7cJWQoe1ZjrdBuD7UbqtFmysGR1iTR93gRXDNn4XdlbiN/VGP9DbSQRG9dMyjrVfSBn6KjvPTmKUapOflb4F7PfqJrSyBsJl3cFuv2Yc24a1DT14VoFOS9vxgVS5kbCbD84+9AC79lyk3sYyg3bfa8PKJvEJ1gw4l6wPgDJ0+uC3YKMyZlDbqwdrciusNAfgdmPtz99N3h0iBsYo67ikG7G5YqyVrlKf8wjPVr5aR6H6jdGEgWGb6somEH9oQvksqw4MmheD+9iQdnWFTZ0hfsH8rMtN0nsVPfdON3rbfssocuxab+nfpH+T/k36N0EQbi/uWkSh7So0ga4i27MQ0KvrJ73Jjq/WADXB25CJA/3gd6eWwVmCWnl0Cp/oibIuSHfG++ViE1oqnnetAezqTm1cunIN+kCpDqoTz9ftQqMWpVt14BrjbXqYsNXXyn5D2HEgYaIRlaX4/wMSnX1ZDwp2S9BrFLOhrR4zb8+2FGz3KyXjpy74Cd1mQbI+TMrBdVevQmkb/H7yuuygVAeGPdprKzQ3V6ifUym73k4sOeAse2ytNyiXYdiuU1mpQPeQ2aVXp7qyqQfjiYcmUKbR9zlVX2Olohuh43p4NGnmzfPH5jdFOqCn3d6pAbltv2VysQlejldN+jfp3/LSSf9WgOPWvwmCcOxZiOe70Yfusr4JTgoLWj51MDLNjaDTzOrsYjfoIeygbZIKBVtBn0ww66e1B4qtvrb2K8PyIDtkDsDfjf/vrGanW3KgUERvwXo7Cu25G3p1usAO+HNwmfm7+bYIwwZ3VgPvYl4m5RqNfhcX2NyIdrGuLGX5bzTOUhSEfFzSQY1GX9HvNEae2HJjHc+J22XW2MsXYEyAHc9HZc6Ay9Q6fZTej4R+5xS7A9Lh49b5FUinE+eGnBfpt8Buh/OjcD8Yi/Rv2Uj/dmg5Mv2bIAjHloWFndc6dmtgdq4dqFizZ0ynGeswy7BM1DGkPkVDsg47tvra2g8d6rWRFco1hI1NWD0bHRpsZ4u1O4BxEalT6xFwlNpzuQb9FqyszT5k9doOpOZn4VraIGywb+UtqZCcA5ZPLQObvGo2miCU2Aw3Pi7pFkUR+Ya9OqWVTQY4uF2fvuU7t3p1HXbuthqxQaptfoXLHRNyDvb9FkxY6x1wlO4HmUj/lo30b4eeo9G/CYJwHFnshmvhGphVvQYmuSFIbR29kUhsgZRep1OdwSYxE5nRhjTrHmzU4zf4Xlt3mCadLmxUYZgoq9fW4V1TMzDkDzdE2U9+M8JWX1v7hRudVI20wx5UK4AX90A56E1ghoZd2lUdNlfU4WKrR+H2bFtvRjud0WuJDaG1t29thuvTem3YXo3XR68dX0tbSw0Qh7SrJar1XqwdDHsXaQ4Sk7Nah65ren2HtDc2wfFYj20OdhzSjbeLs3p2fp4VSz2G7SqVlU1wXLp+n066cjMY0qtXWdnU3urOFPlNU25eyHmMCf2WLnuy11v6tyit9G/Sv93e/ZsgCLcVi95ufUT4/srkK1l8pVwn/rzVcZXyjdc7+F7+exlxVeq9jZ6vXwcxOm+8AzLxlpvR8cx3fhZ4D2r4WprRec+Q29DZ76b1jb3KJkMXpeLvnEy+5iKr7OT5sfYrqK91fjb6FrTfpPeghvXueJPtkhYieP9r1ilLPWza8zidM+nmt1/rdt+Nl5W0qWMe2+97UBMGLPKeb8dBQfRxHFd5mRenrzzXidK5Y95VfcTT+V1PuY4TswuO+T70YoTv+c76OKl38kySL3gNmk1+fjyt47iqm7owbPMrUK6pi1PwlW05/Zb1e72lf5P+rYD9pH+LH7du90egfxME4fahpJRS85jUC8KxYwjVNdiSdVqCIOQwbENll9QGYoJwqJH+TRAE4UBYyG7ngnAUGb4Gg2UZmAiCkE+5od3rgnCUkP5NEAThYFjsmm9BOMT06vHdXdd2wRdvliAIgnDEkf5NEARhMUjYuSAIgiAIgiAIgiDMGfF8C4IgHGN69RKlkt2nOvPthAVBEARBEIQQ8XwLgiAIgiAIgiAIwpwRz7cgCMeDXj3w4FZn/z7YGTJsVw/U09xrt2m32xxik0xJj/p+7Njr0ev16I1NUx/VVX1sQkEQBEEQhMnI5FsQhCNFL5g0pah1UF0XGNBcMyeb4ydp5mS43isWpj36VO0nt+VTy/qL47HVKLC3sDERLPJZaTZpNptUSvXxE819Edl4f59pHpy4tIrYMaQGr66ssGJTpuOxXitehCAIgiAIgsmxm3y3q1BtL1qKo8us7Xds6mMI1RKH2qN62/DqCisrK9mTt5VNnWbQpDI6vsImLp7nMGiupeqw3OgHk3bYXKlDR6HU+I/vOQA4nq+P9RsH94oex8OfIF/2p8P85o81OkZZgTlHuF1be24xzTx6WpnXPQcY0KzM88HEZOozuLccm3vtgpC+Lwfp+wRBEGbKsZt8HxXaVf16j6PaOQ/bukMevaqkCr0D7JyntV/4epWjanfBxKXr+8ZE1CeYwxmTPR/PdXHdJc42+ijVjyZ3wzbV0OtZ6wTpzwXhyIvSyZYh7WqVajV70mh678eFZA97PdrtOvVqdYL3Xnu2dei1/p7Ot0e9XqdeKhE+AwnZXAnlGT/JHez6WVLSrmZ5yVfQxWyykudJnxArXj67igM43jo1LEL0h22qM17aMGzDpssBPnRYLNL37Q/p+wRBEI446rDgK+W5SuEsWpACdJWC7I/bnfxz31PK8eYso6+UM2ub+ko5KNX1Z5xvUTGy7Be2o7AuHKW8rsXvDhvzqLdDiuco5bhK2TanrosClON5ykV/t/k4XrIEX3lO/JzvecrzPOV5Tk4+jvJ8pfzgfDrPDHxPOaDAVZ7vK9V1dV6Op/zgu1U+5u/0gZH+sftNmC55PCVWoIPjaPlG+ebr4Gjlo+9xAQN5XOW6OfWQI1AoS/b5qJ7ip6Py4r/KO26em/QJfmvYcvRxXOV6nvKSN5a02FZ9motSNtV/qJC+b6FI33c8KNr3CYJwPDgUnu9hG6oV2F0C1V+0NAWoRUMO3wPHi/7vHPf1gQ7UDpunZgj1CmwDflgvLdhekaf9h5lGH1pLUClRcFOrs7FQ52zPd5cwAnrQrCQ8wWUafX1+0KxQ7w3xT53i1KmznA1SjMLKgzjqacKiexebDADYZNdP/LjWwfccLVvhHb10qHfX1Z5lrVePeuB2drtq7H2o3OijlKLf32LVmVCUv8sAWD4VyW9+L0Lumv0DoZZoMypWvxC2nUSIvhnq3+/QaTRoNPKNa9unHVmvt/R9hwvp+44k0/d9giAcZRY7+R5CvQqVbdjyodPIT1MywrzqbahW48nqxvlUZ9OLwsPaYehVHYa9KHws88ZnnN9vWFkyVK2e0yGGoWEjXZIhbb3oXC9hm6QO7SqUKjAYxPMsJWwHE+w3UiLQISPPZNlW+dnoGxZtYb/eRdjxoN9htP62XIO+DzTTa9bM+s/Kc9hO2C20+z70sGnPReptIgXaC0N9fZg2qdaJQnCnuI5s7VJrgPKBDfswznAyHX0qNPUs1whzDkOTAbeL3+3SOuUbYcXRZKzDRVZWNrhWmeHIulcPQrAdPD97Mjxac765MlU4c62jogl8oK/j+XOYBDksVRhNxPPZZHPHwXE8PDfjdMaa/UpzfI6jnFdsws6NOs8j2LwubK/DazuBivvcWM2mTzO42ARvfXxe0vcldJG+L52X9H0Zgh3fvk8QhCPOgjzuquvahai5pEOnul5+KF9uWFUQLhae8xydR9dXoxC6VOhPV/8GizCzceFcvpcOLep6cXli6YyEfleHYCXN5AZyhbbxuznhcAVDuKzC0grkaWWXCfra2s8lbadRejdK63u6DMcxyvaDELBxuochh1PqEcpo1Z5nHHpn2178xP/dZNhsgeuoiF1iMnTTdRuXyQgN9n2jXWSFJ4dhxs6E0F5fea6rXFeHXqfCysPw4yBju7DznLJT4eMqlmdc/sm/S+qe+/txujt2+aY+sd/EQ7rdrllXUdh5eMxexlmGnWenicnke8oJ6yxh85E+Gbay7dNGWnlK4eafl75P+j7p+/bPcer7BEE4Hixk8j26aU1IZ3YatowdgBg30ljeOR3LTMpV+R1jUr/cDrSbHqS5GYM8z8lYO3iIByC2+lrZb4JMphz+mAHsuEFMXjux1aNQe57DAMSqvUySo8B1VKQ9Z8oc3CfiIpoTMdv1uxaT78Q65llMvnMnmWMm0dFkNUPe3N/lTJCtZ7fjJt9BCs8ZTVT19yx7GvWRLNuw3+GYfJvr/bvKcxzlOEH60Rr9/E/WtWTTp5mMW+stfV+YUPo+6fv2x/Hp+wRBOC4sJOy80YfuMqzkhbwZLJ86GJnmxhB2HDJf8VNZSqRD2yQV7rWCPpng3FFeW2err639yrA8yA6LA/B34/87q9nplhy4ViTsq2C9LbI9T2wvGWGBpTUmhBjn51W0PY9+GoTy7azq9bLxIHCf3QHoEOjk+t1wzbcO8Vaxc/2MdbU92u027XaP9lqTAQ6rZ+OJRqHtye27Jyjfruodvyetu05SW/fQy68HZG78naJHvVShOTB09oM8NlemWEeeINjdW4eF6/Bu/X1AszJmJ/XNxKvgCtkvn5mFnVMmfN36oLlCczCA1fX8dd6JPQWSFOnTwG6tt/R90vdJ3zcbjkffJwjCcWFha75rHbt1LjvXDlSs2TOmY4x1imVYBrp5e8gepY3obLDV19Z+wDkXNrLW2A1hYxNWz0aHBtvZYu0OoNA+UgXr7TC353oFaEUb9igFagsm7cWVyTTtOVwvuwEtH/qZe0Bc02MXZ5WzZf3Kq/Sabz0xTL52Kj1RrHGWbZrNFf07Z5XE3DvacC38WMyke/VoMlx43XW5QT9cgz7pt7064TvMu+bDhXKDfriB2ObG/l6JFcijs3PpJr73M2eP+lzMbskXf+fqM37Ne/x94eFmesnyunS7XbrdTvDauOxpSa1jvmPcYfUs+pVmleZUg27bPg0mrPUOOMz3Ciuk78tG+r5Dx5Ho+wRBODYsdsO1MnT64K/CRiW96UdtHb1ZiNn7DKEXbEAy940pZrTpzLoHG+bmHWgdNhLumU4XNqowTJTVa0OpPn35DAz5wye8+8lvRtjqa2u/WgeWm/GNUoY9veswXtzL5KA3QBkadmlX9aY1RedLtnoUbs+29Wa00/2+e3ipEj1tHw6hPu3Tf4q1515bb7RDSw9O8nYTHr62zQBwWw3KVFjK9XSnJ2itjIniaLMzgOVT0WZF4U7gU2xDrSd1WZ722fFaPfAmu11SO3NrIeh6Hp6XfqBQnCHXdgBniUp4yPw+d8o0+pYPJACoUavVqNWAa9e4du1a9nu7g03XIk9+tGHfPkQd26eBnddb+r4orfR90vdJ3ycIwrHigMLbJxO+ozK5HsYP1r8Yzw5TG1l4mc8X9cdVqXeSen60OQ6uGq3XCc+NmLTpTIF3nfpelBco5XqG3IbOfjetr+vllxnK6xrHkmursspOnh9rv4L6Wudno29B+01612lY74432S5pIfLXR9rqYdOex+mcSTen/QbnbNuL342X5zhKdc1rYIrryMYu9u867SrXdZU7amzhut1x67knr/8drbOetAi521XdbtdY92z5fu5E+tHGauPeq50t6JS/i+TOkinrE9fLXBM+bn24xRp8Y8130naRPOPWameVl5fej6/lDn/lxuVJ/6z4mu+c4jP7NOv3ekvfJ31fAftJ35c+d3z6PkEQjhMsWgBBODIEG65IR7kIsiZaRTZcs5h8T5zUpssrsqt4crJbbEfyjJ3DC38m7fieK7mecOutwLUc2dux50+GYw8OxtfbNBuxTfwUqyg9+R6zsV3RujOyttpwSRAOFdL3CYIgzIySUkpN5TIXhNuMYRsqu6A6i5ZEEARBEA4G6fsEQRBmx2LXfAvCIaZXj+9UurYLvgw+BEEQhGOM9H2CIAjzQzzfgiAIgiAIgiAIgjBnxPMtCIIgCIIgCIIgCHNGJt+CIAiCIAiCIAiCMGdk8i0IgiAIgiAIgiAIc0Ym34IgCIIgCIIgCIIwZ47d5LtdhWp70VIIgiAIgiAcLeolaA8XLYUgCMLx5dhNvgVBEG57qsE7gvJG0e3Eu4SqdZAB97HglRK80ou+v3iIHkbvteHFKjxTCj5VuJLT7q7Uo3Qv1uFmTp7HId0rJcMmxifPNvNi2IZNFxrlgy1XEAThduLwTL6HwXiwum8Gzh0AACAASURBVL9sGn3oN2Yj0iSG7fj49UiPY4dQrxp6VHV9zD2KYAjVfdZ54fIy6qxUlaf9s6bQ9TGp/dnWW146I/1tQV+B52SfG7ahCfgKVPDpd0AG3IeWK1VjMtYLJmf1jIRDeBN481r0PS+v1KcKe8PxaV6sR2mKcrMH2024rwUXlP6srsKlSnqSeaUKl3Zg1dfpHtiB56vpietxSQeAG9kl/Jwpp/OzagdTcrEJ3nr8WLt6RMc0giAIh5RDMfketqFagd0lUP1FS2NPuQGqC7jRGFYp2DoHa0dskF9fg6WtSAe/Bdubi5ZqDpT1vMQFuiqhb0Um4LOkyPUxsf0VqTcnOt91we0G//uQMx29/XCWZLJ9hDixHPwtAxU4CZxcykjow3XgvlPRIfM7wJk+nPf091Vjore6rK+lK0OdZtUFHDhvpHkPUZrCOtR0Hr9Qi46dPqt1ef01I2EPLg3gwRacDtromRYwgMu9Y5iuANbtYAryvN6NPrSWoFKC+pRyC4IgCBGLnXwH3q7KNmz50MnyWCc9YiWot9Pe0rrpWUt6a3txb9rI+9aLvGSZnYpxvldgsFGuwSppj1zKs2ecbxvn6okOfPQb4wl3Lxk1Ws2QsRfP09Q39iS7B5vEO91yDba8eHamjUeym55G8wl8hr71aly3dhVKFRgMJnsnx+o7bf0alGvQcmHXL1CuiYW+eenMdjDyFlczjiWjiG3rN6vcnOvIWt99kLo+LNtfXl5Z9WaDTXsO7VFtBw8JE/ZLMlP7mZn1Ev8nC4+FkeeEcYQNqdKEQTMuaOb9rx4ZIkuHIvIlG1+eKy1p5Gpd/5+6jjLSmfmFN1SzMxjdZKvxtEX0GPZ0pU4KEZqkb69OqVQa+zHvHfeaE6wy3JdhOpN7K4wm4racXs+YCCfTdOBhBy5dLJDxGPZeSz8suHktKMuYpFODBwk8+scsXRGKtoMiZHm9Q2oN/fCSDd3kZ90nCIIg3E4sbPLdq+uJFy3t7S7neGHqFVhqxT1n54BBIl0n9IRlDdhrgddrANtLOt3qDlQ2oOVr79zmyhzDqnpQXYP1vqFHH05djCZnjb6OEvV86CQ6a+WD44Dq6EPDNmwAvm94E1uwsZYYo9Yi79/mhtZ3tRt5H8107kCPM00blBvxEP5O4Dn0fGOiVIZ+F+1t7ERp62Hdhvpupc3S6Bu6qbhtTCbqO4P67bVhZRPOGba3trOlvjbtoNxIe2jLDZ02FUVsW7/YXUdF9J0plu0vi6x6s8WmPdc6wT1lG9Z2YSthP3PONXP71To6ExfYqOrMu0Hm54zZSrsKu+cSjW8Nmom7ZNiQfA8cL94YprBfIfloxcPcW0uwloyXHeonsS3TgBmzgV4d1tChEKOw+XW4WI0M3einO4NGcOGlriNLPegFN5WthK134vnZ6FvroJQa+zH7gROnAAfuNYpJerSvVOGZFf39UiX6fnVFh5TnrUkuyulVYBP2ps2gF4WxbzcBN+4Nv7Gb/9Pru8cv3YjN+BKAVzJuGjbtYBqs1nqXodPX0UYbFdnYVhAEYWrUAvAcpXCU6k5I13WVcrxieftezm98pRwnJ29fKYfJ8mQLqRRuWgaMsjxHKc+fLJPvKeV2o9+M8ujGdXLzZM2QRSlLO/pKea62A+iyvYxCum5ct1BWN5HWJfv3WeU6zvgkVvoWrF83Pt1XjqtUsoqK2NlGX9t2kGeTvN9Pql/b66hou7LC4vrQB+3an029xYp3020zeX5Se/a9fP1Nm83FfmHGuY1rTOYu2Q0m9yY5JdPKl6qcbtAxjKtRpS+OzOsooVeennm/n3QR59kzRhF9C+Ar9YKR7WVHqcsZotzwlPoISu0a3yelC/O/7Cj1ESc6tuvq/2/k/DYr36I6XXZ0Xp8xzLLrJmQL+AxKfcQ9fumU0nZ4wVXqRmDT0MafSTYXy3ZQFKumnfxNMEaZQfGCIAi3FQvxfDf60F2GFYtw4OUZPNWdO5vxCMO1XfAN7+3uAE5lPVEuw/IgctaUT8Hmq8AQtgEPHT3ae9Www1D7WVZK8TJLJSitkHLChEy0YxkanciZ5G/B7kb66XatE3gpQ6F70FxOeOuBThe2VxJh2NM8KZ9SXxvCtcN+V+fjJ5YJFCnXRl/bdjANk+p3Yv3P0c6Trg/Auv3BhHoriG17dnLWVS45cG3IfO0HcCrHNT28Nl64g2KcfMkGEH5WNmHHjL+tBR1DJR63n1xrMVjOXq9ePgWDMe7G/egxOj9hobytvgXDzinDk0Zk0Zl+YjOuIbxYgueb+t9t4/ulSv6O59uhp7UCry/D+T6cHq/h7ChrPR4Erm5Envl7x6xhNtc3H5d0oO3wZCdYyw2caOjwftMuwOR2MAVFdzgPlzftrAZRi/srXhAE4bZjYWHntY7dGqKdKddGHSiJDaWSGwePBuhJhrDjGBGfNXB3YPgasApnV2H7Nbi2Y4TVlmGZ+KZT40K2bejV0w9BymXotLLHsuueDnMeAu2NnHVitXhUqL8FbE+xYcsc9E0VUYN+C1bWjLDnouVa6GvdDubAxOtonnaecH0UbX+jNFn1NgU27TlPjtEDlQNop5mMm3DuJhfnLIDyWVININYYEusKwhBwpXQHsRXsqDdqHzVwdnLWi495EDErMi9gA1t9C4adT6QMT6pgkzT0Rmrm9ydzlm+YG6492YETFkXd2AWcaBOx/XJv4hnRieBB4V5i75OrxEOsj0u6RTNurXeMcI+eYDnXQb1VRhAE4bix2A3XwjVEq3oNUdJTWFsHmtA2O6+hXudZLR3Aph9TbriWpNGC7TUYJjyr7TVYbsXTLgFr27B6NhjHbWsvuDkO63T10sRhQqZem/imZwXYXEnYGe1xd8+l05Yb2lt4sa69hMkn5sNADlO+cqBbJgPDvuHGYIYe89A3ReB0WzPaoG25tvoWaQcMIoffMLBJcgmvtWqW11FhOxvXx353iS/S/mJk1FtRJrVn0PO91J5ZbdjxomvzQNppihp4O4mnF0O97ni/byuYtOGaFWXoEuxYZx4PZEzuwBhb+B9s6ZykFVR47Doa6htnKzEjGGxH6UKX3bTPJNY9aK7FO4Oh8Y7MYSCzrb5z4OYO8TXBifXB+2Wvrd9C8GDLbqJucqWafs/1TWNH8FF+Nf3gwPT6XtkAHHh3Yj+U45BunF1Orha3cxFsvd69dnyPnpq4uwVBEKZncRHvCYI1n6nlcn6wtii5ztNYaOR7eW6GIL9u/JjnB2s9w/N+tNY0tu6pGx3PWoaYVW7uUsqkHjnrd8P1sOEpz8nO0++m7eIm0o10TH6cdDrXy8hvzPLEUPfcJaXuZPli6SekG6tvkfrtxsuKtbcwnWtZ7jT6FmgHyfXPnhNvY7b1m1luxnVkq++Ibs51Y+hgc31YtT+/WL0l14aPvTaVRXv2tG321U6LkqVEniKe2RiCRhU2mNCQuQ2G7MXq5kWUt0baVr5u4iLPWtTvOdpYqXSTLhDyF/+bdnFcfSNPNtoievhdvWbclM/10mXb6DsHwnXbNxLfU2lIfBLpMtOg1AuOUrtTLvK90dW/T+Z3Occsl10jnZvW47iku9FV6jNJezsZ673ngM1ab8+ZvLeGIAiCYE9JKaUW/QBAOHoM23rtbr8zOa0gHHbGtedhO9hcW8IshUPOlSpcWoYLHdir66ipC3KPFjIYtqGyS+wtJYIgCML8kcm3MBX1Eiz59pu0CMJhZlx7lsm3IAiCIAiCMAsWu+ZbOFKMloCW9HLSZmXuSxgFYW7YtOdeHSpNGDSj5c+CIAiCIAiCMA3i+RYEQRAEQRAEQRCEOXPXogUQBEEQBOFosVfXO5/bcNLLf92ZIAiCINxOiOdbEARBEARBEARBEOaMrPkWBEEQBEEQBEEQhDkjk29BEARBEARBEARBmDPHbvLdrkK1vWgphBCpD2EezLpdSTsVBEEQjjv1ErSHi5ZCEG5vjt3k+6gSvvZIJgBCEeql6HVZ0naEorSrx6TtVIOLIG9U2TbeK1cqQbUOMgA9FrxSgld60fcXD1FbvtmDK214pQrPVOHmmLRX6vBMSX9erOenXUS6RepRhJu9QMYg3yxZF2VnW/nmybANmy40ygdYqCAIKQ7P5HsYjI+q+8um0Yf+Qe6qOoR61RjXVbUeRQeztQ743nzkq+7TpvvJ78DrYwLDdlRXo3c6D6Ox+1F7l3NHgVJj2k4vPudIfo7qpGvW7eog22mvPr5Oku8anyeN/pzuOwdNX4HnZJ8btqEJ+MHFohT0OyAD0EPLlWCCcmUI9IKJStZ9eQhvAm9ei77n5ZX6VGFvOD7Ni/UoTVFutuH5FXh9G94cTNb30g6s+nBBwQM78HzWxHEB6RapRxFCOd9chvNK53uhDyfmKF8RPWzls2r3U3KxCd56/Fi7Ks8iBeGgORST72EbqhXYXQLVX7Q0xaivwdJWNKbzW/avXxEOnnIDVFd/39wIOpyyHrt3XXA8UJ1FSjhjarpdukDXmHuMnbALc6XWCdqgG68PFbRBYQ44SzLZPkKcWA7+loEKnAROLmUk9OE6cN+p6JD5HeBMH84H97rVcNKjYHUZtit6onOmD6su4BgTIwXvIUpTWIeGzuPJPjyQ81wIgB5cGsCDLTgdtNEzLWAAl3uLT7cwPQpwsw3PN4NX2nXiE9q5yVdADyv5KNDupyDP693oQ2sJKgf84FcQbmcWO/kOvMaVbdjyoZPleUp6lktQb6e9r2PDb3txr/Qo6rAXeTwzbzrG+V5W59uDTeI3s3INtoxJzcjTWs04lhMlacoV6jvRLlX9v6lHuwqlCgwGCe9a0nMdRB2YZWY9CbXOjwLh0FmRA2bBhue2l0i7r47CBQ9Ym+T5nSRfQsZ6L15/YTsr1P4s62OmFLRz0ntbrWZcI5PsYqrcNvQNbFzPKN+2XZnpxnmVJ+ZX0C62ethiZecC6WLy5d1bbPMrUL+Fle0l/k8KGgsjz7ooiW60lSYMmnGFMu/3YZ45wheRL9lp5RkkWSHV4MJPypeVzswva/1AeKxUjactosewpys/ZuuM0K5J+vbqlEqlsR/z+rjXnHCU4b4M05ncW2E0Ebfl9Lqe3Lz+2pg0HXjYgUsXC2RckJvXgrJqxsEaPEjg0V9wukXpUYTLTcCBx8ZELy3SfjbyQfF2X4Qsr3dIrQHKBzb0JZ453hUEYWYsbPLdq+uJHC3t7S7neCXqFVhqxb1D54Bk9NPY8NuavrE4A9he0ulWd6CyAS1fe6E2V6YYLNbAHejxivnbciMKYS0HNzUncV7lRUluw9qGfhihlP7t0nbGWCe0XWiXrXRWjX5QtpPwsCWjC8pwdl17f8M0LaBSnTI/LMKhQT/cWIP1fjyvUxeNiYrhuV0x2oLfhZ2V/XUSjS2gmT0Ot5bPkLHram96ZQNWu/rY1jmKtz/L+piWejDmNttpETsP27AB+H4k31YLNtYStpxkFyO/tV3YMtvymn6w5fnQMQY3Vu0qwPT0+55ut+u1eJqJ+RW0i60eJsM2o6UOtU6UztbORdLF5AvupWvNtDyzrF9rap3I2BtVLUQ3EOKc4c5sV2H3XOLmtwbNRK8Q3mh9LwhpMRTPqYuZyUcrHubeWoK1ZPzoUD95bpmGzhgd9+qwRvyG0F+Hi9WoQrLWDzSCG1eyn7HVg15wk9pK2Honnp+NvrUOSqmxH/P6OHEKcOBeo5ikR/tKFZ5Z0d8vVaLvV1dmu5b29CqwCXszyi/Jjd38c9d3F5/OlkWVGy43OLkMe8b661cSY6aF2c9SPrBr99Ngtda7DJ2+jt7cqBzdJWmCcBS4axGFtqt6CV53whioV4cdLz1orTVATbM+04kmG6eWdSRirTw6hU8iMrGmxzvj6PjQvghrpeCBgANeCxrTDO7QecQms2U9htotQa8Rt1csGim4cU5L8uFHbR2ctenzs6G9Aatb6WjQ2roe6Ccbh9uN7FquwaoD19LJ7ClDy4WVenaoeVH5AJzV+NrhspmmQPubR32slKLv4+ZGk+x8sQktFbdLuQZ99CQyy5bj7JLKr6wfjGxXLBXLoGNct726nl9s9fcXeVzYLpP02IRSuEQlI9zc1s77SVdrALvaPkXLNRnb7qdhNXETrYXfe9BcBmUWYNwk90OtY7/mpJB8BIau66d2ow7NT+dbLqc7nY0d2ErKVYb1VR26U9vHZgW5egD1Ff3UqBZrCdrWoyKL6FuAip6shOG59zr6mMmZPpwOwnlXFdwbfH/YhzOTLvQhXFmD6w6sWprv5hBZunCIub4JuHrZAL1gfTXw5CHZc8ZKPot2Pw0Xm/pStqEcjHvrVShtg7/PflMQhDQL8Xw3+tBd1pOBSaGYyzN46jdXytDoRE4Jfwt2N6Z/auisZh9fcuCa4WXrdGF7JRF2Pu2TyozQ/tJaOrpg1uwO4FTWXb0My4O0R/rcfgf0GdQ64G5mt8Oi8sGM2uuc6iP0BE9aVjzWzkPt91rJCuteIeUUC8m1yxB2nIznGGVYniCnDeHEexb7a020S1E93DFed1s7F0mXJR9QMZ/izbp+p+VUXpjANf3UKoulcQtSZ8w4+djMXvOwsgk7ZjxqLegIK/H4/uS6m8FyduMtn4LBNK5CCz1G5ydcNbb6Fgw7p6zXxoac6Scm1EN4saQn2wDbxvdLlfwdz7cDr+MzFXh9Gc734fR4DefOvWPW9JrrfReVzpZFlTvCgceC9dQnanoN//VmFLGwcPtNkA+Y3O6noOgO5+HyoZ3VICp1f8ULgpDBwsLOax27NSY7U64BOgh69fSkrVyGTmv6MdFgO/t4aiJYi0ch+lvA9nTrSsMQdjNqUG2loxVnTfKBwogxE4V50OnqsNlkU1uUfPOuj86UUbfAaDKZ3Lxt3BKEifllPcgY5s7zrDEn3nNnH3qUGxkOV1s7F0mX88DIN+9Vs67fWTNuwrk778eFFpTPkrmT3ihcPOGGC0PAwzVGWy0dKjGqqBo4Oznrxcc8iJgVmTdAA1t9C4adT6QMT6pgkzS059v8nuftNDdcG7fxlcmNXcCJNtWaNSeCB1d7ic28rhIPOV5UukXpYU052AhueXx9Lsx+lvLNi3FrvWOEezAFy+EO01tqBOG4sdgN18I1Jqt6jUnSc1tbB5rQTmxG1Qv2npn7phCTNlxDr9VtJ0a0vVfBTcb1DiKHxjC4ySWXKIKeYFWrOo1OrMP0d7xowhSuER0aMpVJhKEnyu4Z+dWrpF6ntVSJnnAOh3oX99yhrEV+NjRasL0W14MhtNdguVU8vxFGveW99jdGTW++1kzsUj83+SwoVB/TMtT7IhWl09VLRYcJ2/ba07WDdQ82zP2ZAhvvR992NT3xHrbnu45t1nrY2tk2XUq+IM1Got3Pun5nSw28nYwdCqt6cf1+mLThmhVl6KIbWiyPQMbkjpixDUOCLY6TtJZ1eHnsPjSEtW1oJUbIg+0oXejCmrYBrnvQXEtsbGC8EzR8VYStvnPg5g7xNbKJ9bL7Za+t317yYGuOE6fAC3p1I1qnfmUDcODdtUOQblF6FOBMC9iEK8brQ/eCMO9RZMMC7Wcl3xyw9Xr32vE9mGri7haE+aIOC75SnqsUbvq468QfpzuuUr5vJPHyHrsH+XXjxzxfqa5rnPeVcoxzI7rR8a6vUnRdpVwvLZ/bzVDPi/LCUcrrKuUFv3O8SB7HS6RFl5HKy80o10uXmyo7K79u/LzjKNU1dS+a36T6iCVO6OGk6yBZd0op5ZryJvXu5tRnhmyjugraQCqvSfIpoy0lP06+DuPan219WNm5OybNmHST7Ox3J7e/iXZJ1Evs+vB12V6R69yo/7x0MR2msN9Eu1jokWWXrHuGrZ0Lpcu4dkd2cIvlV6R+rXCzMsu6KFXQWSQMHd5QQ2PmCkj6phZL7yqVcb8vJF83Yejwph/TwdFGTaXLKDxZcU6OjKZdHFd3XMmbYRE9/K6+AZnyuV66bBt958BlR6mPOErdSHxPpSHxSaTLTINSLzhK7WbZ2YIbXnaeH0GpFzJMfdk1zrtpPRaVbtF62HLDU+oFJue5KDvbyjdLkn1PFp6TfzsRBGE+lJRSatEPAARBEJLUS7Dk269VO6wcFz0E4bBxpQqXluFCR+8kvY3+Lgi3O8M2VHax3kNSEISDQybfgiAcOoZt/Ramo77T6nHRQxAEQRAEQdg/i13zLQiCAHr9ubFRcmUbuhmveTv0HBc9BEEQBEEQhJkjnm9BEARBEARBEARBmDN3LVoAQRAEQRCEw8xeXe98bsNJL/91Z8J4xM6CIBx3xPMtCIIgCIIgCIIgCHNG1nwLgiAIgiAIgiAIwpyRybcgCIIgCIIgCIIgzJljN/luV6HaXrQUQojURzZiF0EQBEEQjjL1ErSHi5ZCEI4WsuHaIaFXh5VNcDzoywYiwlGjWoIB4PnQyHixVrsOTWMXHceFrY68g+sY8EoJ6MIv1PT3Nw/RJkg3e3B5A64OggMOPNyCM7Xp87xSh0tBUz7pwmMdODEP+YbwYgWuB8fP9yeXMw99Q14pwVVms8nVXhu+1Ax0C3jQg18w8jXtjAOrW3A6535hkx9k28e0axH72cpn015u9mDvGtzY1ja2qetjWx9b8HLBdl9UviJMsrPV/WAIr6xFesbSTXGdh0xqz/Nm2IZNF5T044JQDHVY8JXyXKVwFi1IQXylXEcpCD6O1sPxpsjKm+53k+RzZmnTWed30PhKORj1Zdabv2jhjjhejhF9TylcpcS+R4bLjlIfQanLvlKqq79/xM1I6Cv1Akq94CW+Z+SV+jhK7frj07zgRmkKE8j9gqfUjeDQDU8f+0x3uiwvOxlyO1H+85Bv17UsYw76hoT5fCSjfqfN6/KYeg3bQ2jn3eA3u1PmZ6Z7wc2xZQH72cpn015Gcjn6+rGp69uhPqzbfUH5ijDJzlb3g+C++BFDzyzdiuhrypbbnlWB+/iUuKS7fM9RypHuXhDGcijCzodtqFZgdwlUf9HSFKO+Bktb0TTOb9m/JkNYAGXoK3CBrkrUW0XCp+aGsyRe7iPEieXgbxmowEng5FJGQl97bO47FR0yvwOc6cN5T39fVXAh+Kwu62vuylCnWXXRnhsjzXuI0hRl71X99z2NyBN0ogEPAldfLZ4fPbg0gAdbkUftTAsYwOXe4uWbub4Gl5uAo9vBfrmxq/+eyLsfDOH1gfY0hnY+HejxpYylOhPzA2624flm4L3MiVSwtp+tfJbt5URDt/Un+/CAk6+Dye1QH9YUlK8IY+1sWb97F/U9ctXQ8/Q6nJzyvgH29rO+j09B6PVOBro1+tBagkoJ6lPqJwjHncVOvodQr0JlG7Z86GSFTgVpSqXoU29DtRpPVjfOp9bS9oJzVR39WipBtQ7Dno6WLeXdJIzzvazBXw82id98yjXY8gzx21HZqWM5a2VMuUJ9J9qlqv839WhXoVSBwSBuv1I1nVe7Hi+zWoekaNb5MaE+JugRs0kvOtdLpJ3ljb1cg5YLu378eK8e17VazW4Lw7Zhv0CHeoach9ouprK9xP/JRtiujxHOMEqpBJUmDJpxQ2Zeb2GeGY2vqHzJm0ZWgw5lTDb8aoZ8WenM/NrVdKWGx0rVeNoiegx7utHFbF1PN55J+vbqlEqlsR+z3dxrDtDKcF+G6UzurTCaiNtyel0PBl9/bUyaDjzswKWLBTIOf3tO//1SG24Gx262dQjpg+eidDd78GIVnikZnyrsJdrLzWtBvmYIck0P8t+8Vjw/W/kAGMDLiTxfMX5XOL8hvFKNy3elBy+W0g86wjwebpGPRX432/pc+HB6O2Gfm/m5j7i+HdfNNr9wEvXYmPDsQvazkc+yvRTldqkPwKrd28oHzLTdF6pfB+41/w/ulal0lvra2q/ofbwIF5vgrWefqzVA+cCG7rIyx8+CcBuzsMl3r64ncrS0t7uc85S0XoGlVjxI+Bx6ealJJ/RgehmZ1PSNwBnA9pJOt7oDlQ1o+aC6sLmSPTYfSw3cgR4vm78tN6J12+XgJuQkzisFXtZT7m1Y29API5TSv13azhhrh7YL7bKVzqrRD8p2EkHWyeiCMpxd1x7hME0LqFSnzI8J9RHSg+oarPfjeZ26aEwga/q4C6wYbcHvws7K7G7qvbZec3/O6EiHbdgAfD+Sb6sFG2vxudmwDWu7sGXWxZp+MOP50DHyPNR2qXWiTDeqWvluoPw5w53ZrsLuuUTjW4Nm4qoMG7rv6c0MzEYzzRrUIvLRAt9s0EuwVk9kONRP/lpmBWeMJnp1WCN+gfTX4WI1agiNfrpSG0EFJq9zWz3oBTeprYStd+L52ehb66CUGvsx2+mJU6QGjEmP9pUqPLOiv1+qRN+vrtgP3m04vQpswl7RH9a0N/16E54PBrLPNwFXr08POVHTXsfQ235BwcOBV94sM/ToZXHdOGebn618ozKAVV/nd74Lbzbh+bphZ9v8evBMBd5cNqIM+sBGxsOTIbwceNjOVHKUt8wv9PCuuvp/MwrigrlOtaw9wNeb0QOLK1U9EWIAN4rmN4Q3gZPLsFePT2pi2NrPUj7b9lKI26k+Aia2e0v5Zt3ubev3dCet/4vBvTJ5T7XSt4D9bO7j05Dn9Y5Rhk5fRxVuVGSDWUEwWcjku12FlR0d9tsZMwjv1WHHg0YiTa0xZXi6E02KTy2Dswq1IBzHAfxk+lo03q7l3GQ6PiztwprpmNqHR3YA9M2HEWU9hl9upp1xseih4EY3zp7jSD78qK2n5wyzpr2hN0VJmra2Djsb6fRuN2oL5RqsOrAPBwIrhqNwY1fPXUzzXWxCqxO3TbkG/Ras1DPSjRJBY2t6+y3aLgCstqDfiRp+LbRMD5rLiYYWNFJ3n2WGk1JlsRGbjXxmHrWGfqIUCwtIXfG6svuJhrCxA1tJF0MZ1ldhY58jilw9gPoKeFuJm09g69GujEX0LUBFD+7CwSgRPAAAIABJREFUAeO9TuDdNkiGk4ffH/YTg80shnBlDa47OszXhptFHygN4UubxELZH3aATXhlgllOL01ZZpH8Csr3sLGB1IkaPNnVaUehq5b5XdnQaZIbQ51eTZe5d1HX0TgPW5H8bAmXIWxX9MTi9eVAl31wfRNeR9vmfBeuNuFF8/ItUB/zkM+G26o+Aia2e0v5Zt3up6JnbK6W85DNRl+wtJ/FfXwaxnm9k5SDcfTydjoITBBuVxYy+W70obusJz+TxobLM3hKN1fK0OhEk3R/C3Y3pn/K5+R0kEsOXDPuWp0ubK8kws6nnQdkhPaX1tLRBbNmdwCnsiZZZVgepB82nJvywUIe4ZpvvwvsgJ8YGO8Qn6CPPitEzsch7DgZjtwyLE8p16LtAsCpnEyH1/T67SyWDmD0GTJOPjYzKq2kQxt2zMcSteBGVImvK0jG9w+Wsx8GlE/BYFoX1gQ9RucnPIWw1bdg2DllvZYw5EwfzpiiDHWo5vNN/e+28f1SJXsQHaZ7pqQ9UK8v6515T4/XcGpuvqYHuQ9vRYPPM1s61D25hvdKXesTepFCXUzuHbNWMraO0jI/a/kAnIydm4M1nGHoqm1+NwZwcjX9cCT0XI7qOZiMPtga/yDFOr+CnO5EntMnO7qcVPhuEYyJ1wnDyx1GIxSqDwv5rNuLLbdZfYRpJrV7W/lm3e4L129Pe7yvoz3qFzoZaQroa2W/SffxKbDyepvpg2WUO6tBlOv+iheEY8HCws5rHbs1ITv7duHNj149/fCgXIZOa/ox+WA7+3hqQlaLR8H6W8D2dI6uMITdjFpV+/Dc2pJ8oDAib0I7J0be7DXjqWwweTY3ZcsMtc+ZEIeT92k4LHbJZNyEc3fej2ssKJ8F3JxKU+n3+I287UrfkLaCnfdGFVoDZydnvfiYBxGzIrMhGNjqWzDsfCJleDIRYmp+z3v1kRmKarvR0o1dsgellsQ2fgrWPZqD41cqcGkH3uNHsp3PWBZyIngQvGde7D0d3mqGctrmZysfEA+fTZAMI7XJLy/s+Uo18vKGk9GrK9EDk+voAX7y4YpNfvthrx6svZ4wIcokCEtm2e63VvVhIZ9te7HltqyPAu3eRr5Ztvsi9Xuzp5flXAce7I55NZyNvgXb86yx9nqHezoFyzvlFbqCELHYDdfCNSGrek1I0nNbWweaiTDuoV6fWy0dwCYOkzZcQ68VT4aZ914FN2PDnNChNgxuSsklsqAnvNWqTqMT6zD9HS+adA3bwZ5UhkxlEmHoibJ7Rn71qv69yVIleiI5HOpd3HOnUhb52dBowfZaXA+G0F6D5XGbyUzCqDfr3csDJ+ia0QY7Xb0kd5jIo9eO67vuwYa5v1Wgw7RT0bnZZSbUwNtJPOUJGul+d/mftOGaFWXookNPYnkEMiZ3JIxt2BCsQUnSChpGrD6GsLYNrcSIYrAdpQsf+U/bENY9aK7Fbz7DYHfEUfxeAX3nwM0d4t6v/XjCMthr6w2cphnknzirPUZZG2g9cDY4EK6fXI0m9zd7er1nisC7dHUjyi8MZX336OZsn5+VfAbbiXWfrwRh+2HZtvm92wM29UTCXJe/19a7N4/ka8TXrV/wg92SE+87ts1vWvbqug2c9LLDdG0409IyXjFC9Pc2ATeKvChaHxPls2kvBbjd6iNkUru3lW/W7d62fm+24fkVfXzVn2wzG32L2G+W2Hq9e+34nk55yzYF4bbl4N9ulkP4nu/kOwiT79EmeIeg8RJB38tz+wT5dePHPF+prmucN979HHtnYTc63s14aWHXVcr10vK5Ge9U9T3j/dKOUl5Xvw8R9Lu9Q3kcL5EWXUYqLzej3Jz3fU7Mrxs/7zhKdU3di+Y3qT5iiTPek56og2TdKaXfLzmSN6l3N6c+g/KcPHnCc8Yxv2tn51T9+ul3YC7cLpNwc4TLyshz08KFDTq8ALpuvsJZ7x02L8qsl4QWka+baKThRRfTwdGVmUqX867y2EWSI6NpF8fVN45kYyyih9/VF6Qpn+uly7bRdw6Y77XNe+d15ju8E+ly3/Pt7OM930op5Sv1GSdebvL9wze6wXt4id6bu2u83zf5XtzLbjxtUt9C+Y2TzzfycXS5yXxT7/e10DeU8TNO2taXc5pMsn6S7zy2yW/XVan6zbWJRRuwzi+U0ZuR/SzlG9luUnvx8vXIe4f3sa6Pou2+QH3Mut0rNbl+P5NnkzC/aa7zcfabI1nv9U4i7/kWhMmUlFJq0Q8ABOE4Ui/Bkm+/NkoQjhpXqnBpWa9f3KvDNjlrGQVBEIQjy7ANlV1Qcn8XhH0jk29BmAPDtn6LlS8bjAiCIAiCIAiCwKLXfAvCcWEYrTMvlfTEu5vxujBBEARBEARBEG5PxPMtCIIgCIIgCIIgCHPmrkULIAiCIAiTCHcxtiG1M7EgCIIgCMIhoPT1r4vnWxAEQRCOKn/1V19atAiCIAiCsDB+8iffs2gRrFmI5/vm1UWUKgiCMHtOPFgs/d13/9v5CCLctnz/91/jr773bxcthiAIgiAcOD/5//0Yd9/9n01M993v/leF8p3VfDU5TjzwyffNq3Dj/zzoUgVBEOaH7QT87rv/LXfdJZNvYbb87Yk/5W/+0+uLFkMQBEEQDpzv/d6/pXJXySqt7QR81vNVc5x47HY7f/mj8JtXFi2FIAiCIAiCIAiCcJx47il4+eb0vz92k29BEITjyvc88hv8wA/+Bt/38Tczz9/x8Zf4vh/UaX7gB3+DH3jkJe5+44CFFObA/fR+8Al6n4u+v/TxH1q0UCPUpfdya/MCbz36Sf7x0V8jeyOZ+1GbF3jr0T/mH38k+Dx6gVt/k5Xfr6XTXbo/M89b658cpXtrPa/sIN/NT/LWjxj5/sgf89b6hehYruz7K9eWTPk2I73t7FzEfrbMTl+1HtcvT9cUf/NrE+tpkv2SevzjoxdQqfb33lQe+vPJVFu1tbNtvY21s4X+Y8n9/YTrcqpy7dqLnV0WVR+H9H417hrZpx728s06ncF+2/kB8LUr8NmH4LET0+dxeHY7vwkvfxGe/zv4woemz+axD8Fjs5NqLF+7Ar/yavr4Aw/B04/B2w9IjplwE577FHw2vCDfCeffBl88CR87M99yf/NT8LF91Hnh8p6F15PH3wnnf2l/F5MQJ+v6+IPnDtl1cdDtb59853Of4Lsff5Z7sk6+8XnueRr+4S8/wXf3M84WDogf4s8f+e8Y/MU3cP7yZX7237+P/+mxd8KvXuK/byeemLzxw9wE8H8IfiL4HuPHuPXoFre+klHMT3+ZOz/2DKV33s+tRz+emab0+Ke54/zvU3pncS3U5id568PvoPTTX4WvvAN+Oifdpcd568M/SukPP8hdD7+BHhT+D7z1zz4Jf/YEd4RlX7rAW7/8EKXfucidn/0TSmEZv/xx1B++nzsfDnMM9OHT3Plnvz/S761H4c7P/j7JAEQtJ9zxZ+/nzqSeF/Wk8K09G42LlWvLWPmwt7O9/WyZg74//en4by9d4B9/+SEoj3lS+M7f586vfymQJc0k+430+MqXufPPnqD0zrD9XeDOrz+T1uPxi9x18U/y5bG0s3W9TbLzO3+fO7/++wXaaYIc+02+LouWa9de7O0ScMD1cajvVwWw1sNavlmnSzDhOp9MgX51Sv7oVTj/dPzYyx+FL77Nfu53KDzfX7uiJ0T/4eT+Jt4HzdvPwBeeAB6CLzwXfZ5+AJ796KKlK8Zzn4If/6VIhz94H3zxy4uWag6cgI89B48Cv/tcQt9n9xdGIsR5+5nAvsE18rsPwR9NM2gQ7PmZt8nE+8jwH/knSwDf4J/cD/zENzgBnPin/zGd9N//59wETlSic+Z3+Fvu+Oz7ufN3vgp8mTu//n7u+vr7uevrH+TO0w/x1j/7JLf+5g2d5nH05MdIcwcfCNIU16LkPsFdX38/d372X1MaM4AuPfwMd339Ce58OBwAvUHpX/Qp8Q7UvzG8u72HgC9zh/snowFayf2UHtT23htleOlxbn0FSr8VPjR4gzt+68vwlQ9w61KGAP47gP97qgcMMYqWa8sE+WztbG0/W2asb+ni+7krMfgeyVz4wYDBpPr9m/egvgKl33lppIe2y0PcKuxNtLezbb3NrV1NwPa6tMZSD2u7WDLr+jgu9yvr+rWVb9bpZk6BfnUK8rzej30IHj8Jv/IUPGcxzl2s5zv0tgJ/8DS8PcvrmPTIAo+eg7/+d3Fv1XNP6XwAHjiX8Nbuwc9/kpE39/kvB97pB+DZT2ov6KNPwFOnE2XvwW8G53/3afhZS6/o20/Dz31eT+RGFZTlWTY8rS9/FJ4PzsVkCWUHPckP3Pp//jL8tjE5fuCd8PgvJWQ0fvvoE/CLRPrGvPN72nZfMH779tPw9Dl41sjOtPH5pwPZTU+yIV+Wvo8CvC/SzdT5558yCnpn+iHMWH2nrV+Dt5+Gxx+CP70BGHawsrOlvnnpzHYw8hYbNjA9yCO7g339ZpVL9nVkrW8B/vx1ePQB+Fngtz+fUw/7sF9WOhs9irS/ceX+7n85yQIJPvcSP/DYZQC++/In+A4vcc9jl7kTeOtXP8C32+8bPfG94+Mvcc/T+hzcz3ef/XW+k8zvjc/zfT/16SAN/MAPfnp06rsvf4JvP5Iu//seu8ydvJtv/+Xj6cl6AfnubjzLPf9r9DT5rZ95N//Qycjzjc9zT/3T3P0Xwf8/826+y2X4lwn5MtJ9p/M437k/tMezfP/Tb8DPfIBvfe598WPcz3f+8ulR2iJ68MZV7ql/lrv/ItTlfr777Du44397G38flGOl7+de4geDMvP41Zc/QTvQ+Yf/6TeiE/f/PwS31By+wQ//BNFEfGwpI8Uonf80pZc+oAdabtaT/zcoXfwgd+x9nFvPv5c7xnmXZsr9qH9TRQElw+NZqn0ZXnqIW5vvHQ1o1eYv6XS1SDY1/FFSE7aH/5QSD8HwfggGm6GnS/MQb/3IH0fpkx7Yr1S59WgV9ZUw/Vcp/c6nYgNr63IvXeDW//ijRl4YUQjRoULyWWBtP1v5Zqxvmvdy6yXg8T/N8P5d4NaHHxqFnmpvJTFv5Szsp/7396DcN+ZiZ1ts7QxYtVOws1+a7OvSttxCesyQWddHmsN1v5r+esvWw1q+GafTOltc5wX0LdavFiPL6x3ys2fgC6f1WPHnPw+/O2bsvLDJdzg4fvQJLWwezz0LP55I8+dXoklgyFPPwVPoicqziXOchi88rSeJX3yX9sa9/FH4lb8LJtU39CTmF+cVErsHv/l5ePpDWsaRHi/Dcw/oScNjHwI+CiRDn0PZPwUfCya2X7sCLxF/YPG1PXj2U8CH9CRn9NvnAlt/Xtvs/BPwsdM6vVnGo5+E567AL56JbPD2M/AxI9lTT8NfPws/Z04AT8DHntAN7QtGvP9zzwJmvQWTF5PHPgSPWYT9TtR3BvX751d0e/xdQwdrO1vqa9MO3h5cvL9p/PbtZ+ALZ7ROMWzrF7vrqIi+1tyEl/5OPwgAOJ98KGXIN9F+luls9bBtf0Xks+KRx/nWNx/n7sZvcM/vPcvdvIPvvPyv+PtH7uOOz0Xvtbjj489yz//1KN/+5uPBJPFN7v74/8I9T78Rv8nd/z7+/pvv05PwOrHJ4rzl+094lP/3Lx/kVjg5/tznuaf+Enzucb47Svkm9/zU/wEv/yu+9ch9+tAbb3JPPTFJ/dxLfN/vvY1vf+4TfNv47d2NZ7nn0af59iNw64NP8633az1Dbn3wab71QfieRxJ3fks94Cr3/NRnufXyr0fyhbbmbcX0feRxvvnNx61N/cOVb8DPfIMfNo7FPdphCJ3+b/BTTzAIzvzVY0/wVz/z71j7XFaseVHeoPTffBU+/M9RF/+k0CSkMGGIccjjF+Oh0A8/w52Pf5K3PrzOWx9ez08XeIayUP5/AejBXcl9grvcIKz8pS9nhxiPeAeKMCxZr+W89cvrvOXDnaFdbMt9+JlEiPf93Fr/eCrMuZh8Fljaz1a+Weub4tI/z5wgaXt8lTv+8IPaa/c37+XWb66nQlGt7ffOL1H66Q9w68OPo/5FuAxjXQ/4v/Jj6fQvrfOPLwX2++mvUvqtf214D7Fvp7ZY2lkzuZ3a2m/EpOvSstxiehTgoOsj5JDerwpfb5P0sK23Gaezvs4n6GsyuV+djtDr/YVxT75PwFMfgl/cg2efhZeSzuCAhYSdv/xR+O2/02G/47yRf/4y/PU5eCyR5mfPTBme/s7ICD/6NnjgXcFTiXvhAeCryfSndYjyF54r5vn72hV4HsOr/Xn4uV9KT/x+9ufgrz8f/f/Qu+A/3Ah+81H4+XCydQN4V5Tuj16Fxx+LRwq8/TR87H3w2y9ny/TAu7TNQlu+/XRcnqeehh+/Ds8+pb2AP/9ReDkZOnFCe4efT0w6Xv48PJox3v/xxG+f+tD4+s7DWt+C9fvboa5PwUvX9Xpkc4JZ1M6T9LVtB9Mwrn5tr6Np2tUkvrYHvCuS5aF3wfNfzE5r214mpZuHHkXkK8Jb/+2jfOtzj/OdYNJ365EHg07nKt/z9Dv4h/aDRid0H9/94NP8w6/ur0weeZy//+Yn+NY3MzzU08hn5HHrkffx9/8S7mmYk1v9CqxYZ3r/fXqSbXi9v+f3vso/dt6X6HTv47uN/5o7fm9/F0i+HnB343/mjmd/fXRuVO4Hnx5514vpW4Cf+P/bO/8YR87zvn+4kqy6QeOmOEk2ZNnSgbzgVqvASS+WNYxSSbbTcqUY1/awdg0fNkYV0pDcch1hDbhe1Jaz7QU52CBhyxYXCprFBZG8UAwhlkmjki+uLlxFjpEK1WoPFdnz2ZZgn3St7KKJ69p30z/eGXJmOOS8wx/L3bvvByBuj3z5vs/7Y17O8z4/5kfsm/1f3k3C6/yjd3rW7Q6vc+tTj7B47EfAWX77x/7fP8L5r4/wsae+HbrB6OHsu7n40ffjHnqWmVird5QbYhJQjZm7HjTu7n91nJlDwIllLgTdEM9+mIsn3hpwjb8vvtxEeJmZgCUlc9d/4oo/fRZOLI/BVfIMmdzLTHyMhx6/cctnV1+sy/nJT3HhBGQ+8x+Z8RWsG7/BzJPHRziYOMPMk/dxxdEbuPCur/PzN38R9+CXzdhEyBwyeRCu+CsTmnHF+76P+8Ev7p11Osz4JV2XNu1OiKnOx67er4IkXG9W87vDjHSdD+hv4u/qcDz2BNx/h13Z6z398abnjT71vcjnU7F8H/k3cMPjRvlJcge+aS8kwHoW7gy6uN4GfxJQar57Fn4jrh/74Kaz8BxG6bt+Hzz5IjxwDXwTuB9jJbzhRbjpZu875+E7wJMPxNQH0MfdJHEc98GRI+YF8Mp5eOxR+Oj58KnNrUfgHi+m4YGDwGl46C293gsP3Gtc9h8KyHXPO+CBtMnbhuyvDX/gKduvnIZjT8PL5wMKW8p2bfpruw6GIWl+E+d/QuP82BPGDf7OSOK1546E+2q7XhLLTagfY1vPES7m+jwg/Mw5Zt75loD1uMuFX965oO6B8vEMb3zTM/HJ3975FsD/7i385PHn+YUjn+Tqzuf7+dk//9f85D5f4X2BmW+9lZ/HJoi9jovfep6rIHY8RupH5/NrB35u3d+Ubufs/zZHq/4nr3PrU5HToTOHOPGr7/Bc5v4hX33TvZ2PNn/1Xl469mccvS96oh92VcwcPd61Su0mbvwGM0+C++Zl3M99GPcuz53yP+dxeZmZL/juwmeY+cKXcd/1fhNDeZdnIc31HJd3yOS+M5xMh5q9Lpv7vxd2lbRt9+y7ufjQv8I98dZIxt7+3x8H1uNnK99E+xvvcm5cVl8m81vRA6PvkDnECBmQz5A5fi9XHu+2f+HNwKHgrfE3mHkybIXPFE8w8+e3cXGYdWpLmvWcsE5dRhi/PtelTbuprg9rpjQfUXbbfjXs/tJvfm3lG2O5VNd5mv4m/a4OgZXVO1j+tAkD5bDxXL0m8vnU3M5vPQJ/cUeyb/x39kICrNvCLtdR3n4jfP98fJzwd24MuCAfhHue7loLbwOOnYY7fgC/4de/D24Cjn52eEUtynOPw1/eHD4EuX4fPPAeuLMnLTh84DB86Gn4wEF49mkTs9yDd+rj4yvzn92X0lo4gf5Guf6gca+/81FzaHL9MO1a9Nd6HUyAxOtoEuN82tusItfGc4/DiVPG8t7Bdr0klZvUehnQbuqYbxsGKJxX/Pcz8MsTaDMN+3+Fi/yA//fjo3YK8XuP8rcdd+xXmTlzjqtLn+SNOd/6fQsX3/kkMyZ0O8yAg4hxMdN6Fd47QAG37W9Kt/NE9n+boz/+Nu3yvXz1j8/y2z9+GgJ/Z2O/NKTrcstYb0ZOSJaKfspAJNHQjUY5Ct7cZbLfB27j4km67oi+C/OgrNmDiHM/9vHqtGv33Vx41zLuoa6LLnQzGE+epPGzl2+i/e3jcu636Z4hcmB6E25izLI97rJxO8/83rBZ6pPXqS2p1nPCOs0w6vj1uS7Hdn1MivHNRzy7Zb8adX/p7YetfOMsZ3+dT3s/HRzrHSKQy2xQrrDpZjv3XDf/5B1w4piJOQ5y6x3AExH35/MmVvWjD8Bzk1bMT5t27hyxrSPvgW8+am7YO5yHxx+FmyLu2m8Hjj0Pdxw0SiHPGyt41Ep44vOR+jDjcueQBzxPPtLrZu4nyopy/e1wz1l47HFj9Y7G777iyRGU73oibrtBzgbG9zx89vPhfkyivz0chD94CxwLrEHbdm37m2YdcLabef0Vb0weGtIV0PY6Sj3OgesjLkv840/Hu+jcegfwPLzi/d92/GzLpe5HwvpLvZ7Hwi389NjLvKH8QmCTfpWrvniMN/zxiFU/5T8LfJRngF/LTx6HN7z3aaMwR2T8xXI4NvwXy8Fy13KR63piun768bdyZSlS35lXubr011z8eOQC+dZfc7VXbubMC7zxvb/L1d9iKH5Wfj984o+4+qnAs9PPvMpVXzzBL7zpmDdG9v0dP7/E/9wmHMMWiWcbjf3mJubEyyMoIcltXLzn61xYfnfohs8NZsT13jOZeE0CI7+sSWAUsZDc9SBXHMVYb/w2PncbHPryCFmzbwvLePbdXPjo+3GDddq0e9YoKZn3+Zm195uEQf8+kCxoQliNXxr5JtjfvlnO7zrBzCFwPxh8Dvf+jrI8Ovtxlx/xXF7vizwOasA6fd9/Sb9ObUm1nhPWqfX42V+XVu2m7kcS05qPXb5fWV9vKebXVr5xlrNdp1PcT8H+ud7PnYI7jwHvMSGdg8KVMz/8obujzzA//wK89t/iPvCe803EUhaTpfnm2+ATdwSSKfV53jZgrNI3BzKGY04vbvimlw35NmOB9zN2R7NJD8p2HtduT6b1fv3o81zpV07Bh57vWmAf/7xJIhat85XT8NjTvdmrg26w0YzPHSLZnJ97HP7yOuD5SH0DQgL8vofGK/DZsXNw0w8Gyxcq/0T32dtx5Qb293SK+b0XvvlI4DnfkQztHz0GLwbesxnnVP1NsQ46Y3Ij3P8e4GmjgPtrzHZ+Y9ul9zqy7W+HwPURXQfBzPhBeaIy33MvfOC83filGec0/Uhaf0ntXvMrsG+wV3OHq676G974wD/mjXEKdCCDt098tvM/Mtm9f+ff8r+rt4SyekcZJtv5VeXftZfvqae5+g8D2cnZz8+O3cNP7usOiEkc9+tc3I6WC7qdeyRkO48dl3f+Jj/9+D+FP/wkV38LLhz7D/ztfdem6kdctvMLv/Pr/KT8nlCMt01/x4+XdI3nWXzqf9Dq/N2N9/7G699l68jv9z7DO5TtecBzvg89G4rlTEM4O2+k3s/cxxXFYDbs24xFI9Bu5vdOdOP9fM5+2NzU+2U9+WZ65NvPxeV/Z2Iu8Z5XfjzyGKvlr3PhRB/hjx7nyvvfxoV3vd/c7B16lpmDNwRcG18mc/RRZnrc9i3aPfkpLn4wkMH36JeZyeW7Y+U9tzhRPi/7vO04A1bjZyvfuPvbxVuPB/s9v3k/rtdmZy4+8yiZP1/urOHMn/4zZhp248dZz3rmy3foWWa+cILMjeG15578MBc/l49kVY5J8AV245xm3gaN89kPp1ynluNHwnWZut2EfqQcl2nNx67dr/z9wHZ/SdMPC/nGXy7FOh3U3w8+zMe+lOzM/fOf/xo/+9mvJZaDrr762Qfg7TG6TpCk53xH7xN3j/It9hS+QvKFAe72QlwOpFW+r7zybyYrkLjE8JTv2ZN8rPo67fK/5Kuc5GPV7o3TN14/xfbfOzdFGYUQQojpMPt/r+Pdv5SchCet8v38Q/Chc4NDi22I3idO9znfYs/y2BPmkWNCCCEmicl47oceZauP8LGpyiOEEEJc+lx/O/zFBOqV8i2s6XFzPgbfTchWL4QQQgghhBBCyrdIwa1HRne9EEIIIYQQQojLkR1Xvm1jI4UQYi+QZk+zjTUSIg1vO+/yd3//e8kFLfg/n/59frhhV/YNn/gCbzuqWHMhhBDT421/9zZ+/g+S76/S3IONU1+N1pVx3Z1NuCaEEEIIIYQQQlxuTPc530IIIYQQQgghxGWAlG8hhBBCCCGEEGLCXHLKdzUP+eq0pdi7jHv8Lpn5aEM+A9X2tAXZXVwy8yt2nNIYrietv9HQft8H7fexXDLzK4QQU+SSU773CtU8ZDJ794esXTU3Jxn/lYfGDt6oDDt+jdLeHvdJUwrMqcZor9CmUS2Rz2fIZLxXvpSgODQoeWXzAwvalkspcRXWilDOjq3KXY32+9HQfj8ZtN8LIcQUcHcLLdetFF0XZ9qCpKDuuhD/KtaTv96quK5TmbCMLdd1xj2mLdd1cN16a8z1phUjbvz8deTPheO6lbrF93Ybk5i3NM3vhTHaZVQc13WKrjvwsmhVXAdc+r4ct9JyXddtuRWnTxmnGLr2WvWiC45b7LzZcusVJ1BXnBhOpz6nX6Hmi8ljAAAZ8ElEQVQU5bpfsNvHi7h9Zdu1aL+fKtrvJ9j8XhijXYbVfi+EEDHsCst3uwr5HGzPgtuctjQpKHRvv1oVcCrd/9cK0xZuwjhQ2G1WqzaUcrABtPx5WYGNeZ3qi8lTbsLKLOQyUGoMLutUWrhui4oDOBVarkur4gRKZCk3/feK1F0X13Vx3Rb1uTXmc/mOZTtbqOG6TWqdCzJL4e4FHDbZ+FqcebLB8aVNcBycmE/TlzPY7uN71uqt/X53of1eTJE0+70QQgSZrvLdhlIechuw3oJauX+ZTMA9qlSFfD5cbKD7VKPrKlf13dBK0G50XeliN8/A56O62EXd9kp9bg58N7lOX6LufY3uZ43I2ET7UM1DJgebm+E6M5GxA0v3My8OLq7OaNu27myJ/fWbthi/xnHYqkCzBh01pADNFrDUG78XnP+4OtvVyLj54z5CP2zWc5p5s6Jt1n2wr/kSjLKkbdeLdbvRccmb/3fWVYp1n9juEPuB7fwWyuC2gNVJueZmKSxXBijWAG0aX9tgE5g70KsxtaurrOFQWVkY2JJtOat9PMDxJagsD65L+32kL9rve+vSfh+P9vtLaL8XQlyKTE35bpTMDw4rxkqS7XOqXsrB7ErYye8wsBkpVwtYJHoomA3S2YSNWVNuYQtyq7DSArcOa/Oj/TgNol2FxW1Yj/Rhcam33CrQanXLra/A6mLgBsCzvhSB+cDYtOqwNR/e/MtNr99OxEkyxio1cPx8stB04+uMWn5s6rPqb4rxe2INVuJu/LOwUoSNrwXe24DFVaMsuF6fZjfCNxbZcmTcWsRaAG37AXbrOc28WZGFu5e9ufNeK0Bu2Js77NeLbbslfy/wy65HCqRY94ntptwP0syv336taaxwq7kUVrgDc5YF+9AoYWK+c8wvbUKx3muRbVdZXNrEqaxTzg2oy7Kc7T4eqHag1Vv7vfZ77ffa7y+L/V4IcfkyDV/3imNis5LC5OrF9HFIfWOXIjFVobr9mLZ0Tdm165r4xri6o/3rV86tuy7F3jqjcYYVJyaOMmUsmVXsV4o6hxmXaH+txi9BpqAcrUr/mNS+MvltxHxu249U63nSMYApxmtgNWljBfu0W6Q3VjMO63Wf1G6K/SDNdRkrs7ff9YroxXU7lb5xgybmuthtv1X3vlMcsE7rnXjx6FjVi4H2vPjzuFhum3K2+3iQQbHe2u/9gtrvtd+PGe33u2C/F0IIw1Qs3+Um1Odgvp/7X4C5Azsj08Row5YDcSGBudlIOcyY9Li+zWM+jHB4L8cZ2vbXdvyyMLfZ52QaaG2H/+/08aSddeClNCaxlPM2lfUc4/qYWey1Jk6z3VrdxGqG3BD7WBAS1/04+zvEddn5qufWuLXgWYWHaR+ANeYzXhbz3Dwbc3VazVrsNQFAtkC5WacIrK1WuxbedpXVNSiulAfLYlkuzT7uVZsY6639Xvu99vsR0X6/x/d7IcSlztTczgs1rGJltl7aUbHGz4CbhNANQhbmgLobcT0b1QVtt2LbX9vxAw4XYTXuB7wNq2uwcHf3rc2NeLG2NyEmTHb0fnhMYz37Ln6toFzr8S6VU2u3EHYbbK0DG8Mlshlrf4e5Lv0YaM+tsZkQA51MMOGaS7NWsLixyzEb6XDbiwNfm/cV+SU2gc2lXOgxYrblwH4fh4RYbw/t99rvtd+Phvb7vb7fCyEudaabcM2PlVkwsTLRk8/CMiZxSiggDBpeMpaJJ7cYUwKe5QqsRhKPNKrmBiFIrQ6reWhH2mpUIVMavn02A/L7p8Sj1DcmbPtrO36FGswthZOttBsmAzOVsMXNwSRRaQfGpZo3CXzSGphs+5F6PdvOW2Cd9nsU82yuexLfbkNpJywhlu22vXEKjl8WmGV4xtnfNNdloxqOgZ58hug21XyGfKkRuj7ajeMsbYat19lys6PAu66L26pgkq23aAYuDtty3S8M3sfBzuqt/b5bVvu99nvt9+Nt15bdvd8LIS4JpufxHsF/Xmc0pqblxdAEzh+douu2gs+5rcSeUZpX0e15PmulZWJ+Op97MT/+Zx3q3fdjn3Ga4rmvrUq3LnDdYiUgd6DPrXpvf4uV/m368haD4xOJyYprO/r5wPFL2V/r+mz6m3L8kp776s+7U0kel14h+seK2vbDZj0P6nMs9T7rNyBbsB7Hcd16cG0H2rOZN+tyKdp1iuNb94ntDrEf2Myv/XNf626RuGd4B+O4+zznOyY+vFUvuk6krOMU3UrfBzP31h3/DG/bcqGvxO7j1s/11n6v/T7F+Gm/j5dN+/1u2u+FECJMxnVdd8c1fiH2Im3IL8K64rmEsKZdhdw2uLVpSyJECrTfCyGEmABXTlsAIfYK7a/B5pxuxIRIQ7ZszOZC7CW03wshhJgE0435FmIX0yiFs50ubkNL1jshhLjk0H4vhBBiJ5DbuRBCCCGEEEIIMWFk+RZCCCGEEEIIISaMlG8hhBBCCCGEEGLCSPkWQgghhBBCCCEmjJRvIYQQQgghhBBiwlxyync1D/nqtKUQPpoPMQnGva60ToUQQlzqlDJQbU9bCiEuby455Xuv4j/mRAqASEMp8GgcrR2Rlmr+Elk7ee8i6HdXWY08RypfAt2AXhJ8JQNfaXT/fngXreXzDThVha/k4cE8nB9Q9lQJHsyY18Ol/mWnUW6a/UjD+YYno1dvnKxjla8dbi+pHzbyTZJ2FdaKUNbD64WYKrtH+W5790f50aopN6FZHo9IVrShlA/c1+VNP9LezBZq0KpMRr78iGM6Sn07Ph8JtKvduSo1/De79+6ZDGRKUxUxFTUXXHfA2mmEdY7oa68qXeNeVzu5TqPPE46+OutyByg3J7Tv7DRNFypO/GftKiwBLe9icV1o1kA3oLuWU56CcqoNNDxFJW5fbsOrwKsvdf/uV1fPKw+n24PLPFzqlknL+So8NA8vbsCrm8n9PbkFCy34lAs3b8FDcYrjFMpNsx9p8OV8dQ7ud029n2rCvknJ14aHc/BCoL1/Qv9+2Mpnte6H5PgSVJbD71XzOosUYqfZFcp3uwr5HGzPgtuctjTpKC3C7Hr3nq61Ahtr05ZK9CNbBrdu/l5b9X5wsubevV4EpwJubZoSjpmCWZdFoB7QPQYq7GKiFGreGiyG58P11qCYAM6slO09xL45798skIPrgOtmYwq24Bxw7YHuW8G/AW5vwv3eXrfgKz0uLMzBRs4oOrc3YaEIOAHFyFOm/DKp+1A2dXykCTf3ORcCoAEnN+GWFTjordHbV4BNeKYx/XJT60cKzlfhoSW4rgIfqYUV2knJd/q4WXsLgfYOLsN1Mf2wko8U634I+lm9y01YmYXcDh/8CnE5M13l27Ma5zZgvQW1OMtT1LKcgVK11/o60P22EbZKd7wOG12LZ+ymE/i8Effj24A1wptZtgDrAaWmY2nNx7zXx0syKJff38RxyZv/B/tRzUMmB5ubEeta1HLteR0E24w7CbWujxTu0HGeA8GGA5bbRqTsSD8URagAi0mW3yT5IjKWGuH589dZqvVnOR9jJeU4R623+XzMNZI0LsEuVwP99ca4FNO+7boKlhtkVU6sL+W42PbDFqtxTlEuJF+/vcW2vhTzm7qzjcj/o4KG3MjjLkq6G21uCTaXwh2K3e/9OvsIn0a+6I9WvwGJTkjeu/Cj8sWVC9YXFz/gv5fJh8um6Ue7YSY/NNYxrl1J/W2UyGQyA1/B6+OaoMKRhWtjhi7INTk6irgtB5eNcvPi1waUqcFdDpw8nqLilJx/yWurEHizALfgWfSnXG5a/UjDM0uAA0cGeC9NRD4Hrgn+31uD0XI28kH6dZ+GOKu3T6EMbgtYNZd47P2uEGJsTE35bpSMIseKsXZn+1glSjmYXQlbhw4DUe+nge63BbOxOJuwMWvKLWxBbhVWWsYKtTY/xM1iAYqb5n4l+N1suevCmvU2NSfyudvPS3IDFlfNYYTrmu/ObsTc6/hj54/Lem9V5abXthOxsEW9C7Jw97Kx/vplVoBcfsj6sHCHBnO4sQjLzXBdB44HFJWA5XY+sBZaddiaH+1HorwOLMXfh1vLF5CxXjTW9NwqLNTNe+uHSb/+LOdjWErePXdwnaYZ53YVVoFWqyvf+gqsLkbGMmlcAvUtbsN6cC0vmoOtSgtqgZsgq3XlEbT0typm3S4XwmUS60s5Lrb9CNKu0gl1KNS65WzHOU25kHzeXrq41CvPOOfXmkKtO9ireSNE3RPicMCcWc3D9uHI5rcIS5FfBX+jbVU8l5ZAx/vMxdjkYyXs5r4yC4tR/9G2OXleCQ50zN1xowSLhDeE5jIcz3cnJC5+oOxtXNHfGdt+0PA2qfXIWG+F67Ppb6GG67oDX8HrY98BehSbqEX7VB4enDd/n8x1/35hfryxtAcXgDU4Pab6ory23f+zc9vTL2fLtNr1ww2um4PTgTjtr0TumcYt38FaxG28DQ97azC0Vi3lA7t1PwxWsd5ZqDWN9+Zqbu+GpAmxF7hyGo1W8yYEr55wD9QowVal96a1UAZ3mPhMp6tsHJgznoiFbOcjWkQ8EwvmfmcQtRZUj8NixjsQcKCyAuVhbu4wdYSU2ay5h9rOQKMcHq+QN5K3cQ5L9PCjsAzO4vD12VBdhYX1Xm/QwrK50Y8ujmK9O67ZAiw48FJvMXuysFKE+VK8q3la+QCchXDscDZYJsX6m8R8zGe6fw/SjZLG+fgSrLjhcckWoIlRIuPGctC49NSXNQcjGznLjsVQC1y3jZLRL9abo3kepx6XpH6sQcYPUYlxN7cd51HKFcrAthmftO0GGbjuh2EhsokW/L8bsDQHbrCBwCY5CoWafcxJKvnwBrpkTu06P2it3nqz2d4fndUtWI/KlYXlBeO6UxghWUHffgCleXNqVAitBDPWnSbT9DcFOaOs+IrNNY55L8jtTTjoufMuuHCN9/ddLbg96UJvw6lFOOfAguXwnW+j0IVdzLk1oGjCBmh48dXAR3Yil0fDKN7nMDL8i5glbyWfxbofhuNL5lK2Ievd95bykNmA1oi/m0KIXqZi+S43oT5nlIEkV8y5MZz6TZQslGtdo0RrHbZXhz81dBbi35914KWAla1Wh435iNv5sCeVMa79mcVe74Jxs70JB+J29SzMbfZapA+PekMfQ6EGxbX4dZhWPhjTep3QfPiW4KSw4oHj3DZ2r/k4t+55eoxiPn3HpQ1bTsw5RhbmEuS0wVe8x5FfK3Fc0vajOMDqbjvOacrFyQfkgqd4457fYTnQz03gJXNqFcfsoIDUMTNIPtbiYx7m12Ar6I9a8H4Ic2H//mjczeZc/OLNHoDNYUyFFv3ofJ5w1dj2N6XbOVkTG+tzezOiULfh4YxRtgE2An+fzPXPeL7hWR0fzMGLc3B/Ew4O7uHEuWZATG8w3nda5WyZVrsdHDjixVPvK5gY/nNLXY+FickXULyvq8Cn+p3fJcgHJK/7IUib4dwPH9pa8LxSR2teCBHD1NzOCzW7GJOtIWOAdoJGqVdpy2ahtjL8PdHmRvz7PYpgIeyF2FoHNoaLK/Vd2INeg+56r7fiuIkeKHQYoChMglrduM1Gl9q05Jv0fNSG9LoFOspkNHnboBCExPriDjLaffU8a4KK98QZoR/ZcozB1Xac05Trc2DUCu5V457fcTNI4dye9HGhBdm7ic2k13EXj5jhfBdwP8ZofcW4SnQmqgDOVp948QEHEeMidgMMYNvflG7niWThI66XJA1j+Q7+3c/aGUy4NijxVZDXtgGnm3xr3OzzDq5OR5J+vUDY5Xha5abVD2uyXiK4ucHzOQn5zjdMuMM54JZ6n3VnKd+kGBTrHcLPweSFw+2mp9QIcakx3YRrfozJgokxiVpuC8vAElQjyagaXu6ZiSeFSEq4honVrUbuaBtPQDHq17vZNWi0vU0uGqIIRsHK500ZU9i46W9VugqTHyPaDsiUJeKGHmm7EaivlKfncVqzue4JZ7ttsrj3vZW1qM+G8gpsLIb7QRuqizC3kr6+DoF56/fY3xAFk3xtKZKlfmLyWZBqPoalbfIipaVWN6Gi7cjYNqrDrYPlCqwG8zN5YzxKf6v5XsW7XZ1sHNu4+2E7zrbleuTzyqxG1v2453e8FKCyFZOhMG+C60chKeGaFVmoYxZaqA5PxmhGzFDCEC/FcZSVOeNeHtqH2rC4ASuRO+TNjW4534Q17AJcrsDSYiSxQeCZoP6jImz7OwHObxGOkY0mwBqR01Xz9JJbViaoOHlW0BdWu3Hqp1YBB36zsAvKTasfKbh9BViDU4HHh5723Lw7ng1jls9/dBiOeSRZnKt5KvkmgK3Vu1EN52AqyNwtxGRxdwst160UXZdi7/tFJ3yc7hRdt9UKFKn0O3b36quH36u0XLdeDHzecl0n8FmHevf9esvtoV503WKlV75iPaZ7lW5dOK5bqbtuxfueU+nK41QiZTFt9NRVjGm30ttuT9tx9dXDnzuO69aDfU9bX9J8hApH+uH0zkF07lzXdYtBeaP9rveZzxjZOnPlrYGeupLkcwNrKfpy+vdh0PqznQ+rca4PKDOgXNI4t+rJ6y9xXCLzEro+WqbtSprrPDD//cqF+jDE+CWOi0U/4sYlbs+wHedU5WKu3c44FNPVl2Z+rSjGVRZ3Ubrej0VkoP0N1R/MvgLSu6mFyhddN2a/TyVfPTLQ/qYf6oNjBrWnXEzj0Ylz+sgYHBenaH64opthmn606mYDCspXrPS2bdPfCfCM47qfdlz3tcjfPWWIvCLlYsvgul9yXHc7bpwteK0SX+encd0vxQz1M8XA58Xefkyr3LT7YctrFdf9Esl1jku+P+szJv3GxVa+cRL97Ymj4vTfToQQkyHjuq477QMAIYSIUsrAbMs+Vm23cqn0Q4jdxqk8nJwzcbanS7DBgJhbIS4j2lXIbWOdQ1IIsXNI+RZC7DraVfMUpr2eafVS6YcQQgghhBid6cZ8CyEEmPjzQKLk3AbUYx7ztuu5VPohhBBCCCHGjizfQgghhBBCCCHEhLly2gIIIYQQQuxmTpdM5nMbrqv0f9yZGIzGWQhxqSPLtxBCCCGEEEIIMWEU8y2EEEIIIYQQQkwYKd9CCCGEEEIIIcSE2RHlu5SBanu0Oqp5yFfHI48YHc2HEEIIIYQQQtgzceW7XYW1IpQv02ftNErmkUNSVIUQQgghhBDi8mV45bsN1RJk8oOLHV+CyvLQrXQoN6G5k1kt21DKd5/Xm8mb/qZVogs1aFUmI18+YewnWd9Ozkc1D/kSjOg8IYQQQgghhBBTYyjlu12FfA62Z8FtDi63V63epUWYXQfXNa/Wiv3jL8R4KTdhZRZyGSg1pi2NEEIIIYQQQqQnnfLtWYNzG7DeglqC5XOg1TtqWc5AqdprfS0FPu+xOjfCVulMxrOQNiDv1xmnrAU+b8SZUxuwRvjQIFuA9YAFu13ttt3zXp8Y96Bcfn8TxyVv/h/sRzUPmRxsbobHr8cLwfNOCLYZZ0G2ro+E+UjoR2hMGt3PGpGycXNWKIPbAlZNXbHzJoQQQgghhBC7FGvlu1EyChorxtqdTbBmJ1m9SzmYXelall0XDgObkXI13/Ic57pdMAqZswkbs6bcwhbkVmGlBW4d1uaHcFcuQHHTKMfB72bLXVfrrKcMOpHPXRcqwTd9NmBx1RxauK757uxGrwJb8sfYH5f13qrKTa9tJzx+PV4IWbh7GZqBMitALj9kfSTMh08D8ouw3AzXdeB4QLEumPeLwHxgLbTqsDXfR7nOQq1pvBBWc4qjF0IIIYQQQuwdrJTvah7mt6DuQq1gV/Egq3ejBFsVKEfqKpQHu7H3xekqxQfmwFmAQhbIGeW4FS1f6CqkhT6HA7UWzG7DYtByO4LL8ybQDB5aZI3SO7cE0Wpng//xFE7bcY8SPSQpLIcPDCZBdRUW1iE6tIVl2FrtLV+sd9dCtgALDrw0oP6sN39zG2ZeZAQXQgghhBBC7HaslO9yE+pzMG8Zc2sT6z13wFbEKZGFcq2rpLfWYXt1eGursxD//qwDLwW0x1odNuYjbufDWnhjXPszi73eBeNmexMOxM19FuY2ew8bDqc8WPDd97cWPC+MYQUVQgghhBBCiB3C2u28ULOPubXJcL41yLQ5ZRql3kOGbBZqK7C5PVydmxvx7/coqoWwm3hrHdgYLtGY78LecsNu7JO2fEcPFDq0YcuBIY343ZwDXljBjma/F0IIIYQQQogRSJdwzY+5XTAxt3EWWRurd2EZWIq4cbehUTUWzYkn00pKuIaJFY+6mTeegOLhSMHNbiKxtqccLsWYlh1MMrm2317buPNvVbrKaLsKmVKgDMaqO0sfNgPy+1buUrjIbK5rGW63TRb3vpZvi/psKK/AxmK4H7ShughzK+nrA7M2gjkH+oULCCGEEEIIIcRuZKhHjWXL0PRioqPKmdVzvbPm+9urAXfoHKxum4RkvmIVzB6eW4LNpUD5EiZjdiBLt68Eby6F5Zrvk318EMVKRL4MPHE4EnudNRnQN3KejIsmcVjFgSUvIVijZGRnAdYXYDHX7e/2Qq/11gGOL4bHZXshJubba3s1UB8L4Na6RZbrXdkyGVhchMMrJkFdJhNx/7aoL3E+fArQXI/0YxFYD/TDy3a+FpmfUsYcXiwFEqpV82ZttFLkHBBCCCGEEEKI3UTGdV13XJW1q5DbDitsQgghhBBCCCHE5c5YlW8hhBBCCCGEEEL0MpTbuRBCCCGEEEIIIeyR8i2EEEIIIYQQQkwYKd9CCCGEEEIIIcSEkfIthBBCCCGEEEJMGCnfQgghhBBCCCHEhJHyLYQQQgghhBBCTJipK9/VPOSr05ZC+Gg+hBBCCCGEEGL8/H8hLU7AGyMySQAAAABJRU5ErkJggg==;" parent="-d8P1ZClJNF3-0VWvZ5_-1" vertex="1">
          <mxGeometry x="10" y="120" width="410.79" height="80" as="geometry" />
        </mxCell>
        <mxCell id="-d8P1ZClJNF3-0VWvZ5_-2" style="edgeStyle=orthogonalEdgeStyle;rounded=0;orthogonalLoop=1;jettySize=auto;html=1;exitX=1;exitY=0.159;exitDx=0;exitDy=0;exitPerimeter=0;" edge="1" parent="1" source="5d2195bd80daf111-18" target="LU1Nu7ws03AOdTx3HO9U-3">
          <mxGeometry relative="1" as="geometry" />
        </mxCell>
        <mxCell id="-d8P1ZClJNF3-0VWvZ5_-3" value="&lt;p style=&quot;margin:0px;margin-top:4px;text-align:center;&quot;&gt;&lt;b&gt;xml_feeder&lt;/b&gt;&lt;br&gt;&lt;/p&gt;&lt;hr size=&quot;1&quot;&gt;&lt;p style=&quot;margin:0px;margin-left:4px;&quot;&gt;+ field1:&amp;nbsp;&lt;br&gt;+ NormalHeadTerminal: 端子(可无)&lt;/p&gt;&lt;hr size=&quot;1&quot;&gt;馈线(PD_10000100)&lt;br&gt;&lt;p style=&quot;margin:0px;margin-left:4px;&quot;&gt;&lt;br&gt;&lt;/p&gt;" style="verticalAlign=top;align=left;overflow=fill;fontSize=12;fontFamily=Helvetica;html=1;rounded=0;shadow=0;comic=0;labelBackgroundColor=none;strokeWidth=1" vertex="1" parent="1">
          <mxGeometry x="650" y="190" width="380" height="200" as="geometry" />
        </mxCell>
        <mxCell id="-d8P1ZClJNF3-0VWvZ5_-4" style="edgeStyle=orthogonalEdgeStyle;rounded=0;orthogonalLoop=1;jettySize=auto;html=1;exitX=1;exitY=0.25;exitDx=0;exitDy=0;" edge="1" parent="1" source="5d2195bd80daf111-18" target="-d8P1ZClJNF3-0VWvZ5_-3">
          <mxGeometry relative="1" as="geometry" />
        </mxCell>
        <mxCell id="-d8P1ZClJNF3-0VWvZ5_-5" value="" style="shape=image;verticalLabelPosition=bottom;labelBackgroundColor=default;verticalAlign=top;aspect=fixed;imageAspect=0;image=data:image/png,iVBORw0KGgoAAAANSUhEUgAAAy4AAACfCAYAAAAfzY3mAAAgAElEQVR4nOy9fYwc53ng+evYStaXhS3ZlBgn9p6W201bo+FB0XplpBpSHIVCtoc2MslyZ/cOK4wOlqp1duKenDGLYzSAY2C0XIQwrnqzdtRNGeeB/rjNhNYKiFS9gWQ6K6I7kM+WhOVoaLPKtO4cwxHFiJRuc45Xid/7463urs/ut7p7pnuGz49osKfq6bee5/3+eN63CkophSAIgiAIgiAIwgzzU9NWQBAEQRAEQRAEYRjvfO01M8GDB83kTMObFt/+9n+etgq7xp997Jd5+C+nrYUgCIIgCIIgjM878wj/8MXhMm+8Maoqu8P/+72/z3cPfHvaaswkN9xgkMCCIOxr3n77TgCunB8sd+DILigjCIIgCCGMBy4/fNFs4PLWW+Oos/Ocf8f/w6t/9+q01dgVfj6H7A03vMg73ykDF0EQ4Icv3snr/2W4nAxeBEEQhN1kZva4nPkD+K1z09ZCEARBEARBEIRZJJermDB5th55hM5FOPjAaX792OVpqzMyP3PfQ/zMN+DvTj7KX3/qlsT9n/rSE7zrxPO8o3vhrnv4UeN+3j60q2ruW9549hCed4g3/uONfJtXWX72m7w3VfImXqj9Kp2v3AjAgQde5lg9TXY6ctOzIx9vPPsRXvj9W/n2N3S43PVyTNdpxbOpfoIgCIKw9xh/4HK5xc//6To/9/w83zvdYFRPseO/DcfHVsaM7zcfofVs9v0P/+6j3POLu6PL/KOP8g+eeZiv787jdowfP3uat790knel3bz0HO86Af/tpdPjDVSefYJ3H38+9dbbZ07zo/sAzvOu9/w7bkhIHOLtk5/kRymDquHcxAv3/TM637iG9dIZPvrdo/zvx2+FB87yO/VLMZmUn9/1Kp9oPEfxULbMgQde5pdq36Q4Qvy88aXjbJy4kQN3XYNv3Ah3DbGDl/nES9/s6bNxH8lO9xTkpmdHPnp6PnCW5WcvpQ8yphLPOfUbmJ/1KvifvR9OHIdfGDGuBEEQBGGSjOEq5nPTE2XufGSBn3u+w9/cs8jVyem1o3zQfhT7d78D9z2F/cePRj6V+6at3T7lrvePv7py3/289eZp3nrzNP/15CH+7uSjvb9/1Eu3I/zozdP8+K5D/Pil0737b715gr/9ziP87JdGWdW6yvvmAK7xvkPAP7rGAeDAh65GZD767OMsn7wGvMon3nyc33nzcX7nza/yiblb+ZNfPM4Ll7TMJx5Az4CHZH6JOwKZ/Nq991Nn+J03H+f+Z7/G4czOPvDsP6bzDfjwv+4OkK7y0X/9KnzjDl54dvpyU7MjB71Bwcmvcn89bVCwA/rlsMNIP6P8rCeT7j8I/+qz8IUL5nEkCIIgCDvFCCsuPjc9d4r3/1GTvwf8zT0OP/y1GlfjE9lX4Av/Jzwd2gf/8UX43svw73+7f+0Ln4Wng++3L8K/vzsUxgX4lceBW+HT74cv/jnc/ktw4nY4+Ti8Anz8QfjsbbFnX4DfCu7/2xPw0QP5rezy/ebDtJ59X+/vg4e/w52/fYYP/txocm89c5yvf+VD6FOj/4oPP/Akd4z63JeO0/w3HwL0KtEdHOfr/0aHffC+Nv9LXmNDKxpvnznNj3mCdx3X7l1/98C/4Ef1o/wkEI26funVjB/Hw7v0HD/7i3/Ucw9793v+qHerv0ISff7PHn+ed3APP3pp8m5kb9cf5Z3v+TI/809P8OPvPsF7MlZvujxw5jT1QMf3fuha/8ahNzgAXDF66lWKtZc58JU7uPifbuKjn0ob3l+lWP8q1vY/o1M/xEfrI4xeDHjDuxF4lVI43u+7xIe5lSveTXDf1anKTcsOcw7xwokb4a6XOZaajjujn7kdZvqBeX7+6N3w9dt0Xf4rz8G//R/Hq08FQRAEYRxyDVz+3vkqh/6dHrBwyOZ7n2wkBywBXzgJ//2DutHr8sK5/iCly2e/AJ8FfnAOTsYDuQ2+fgJ+6yT82R3w9S9o94V/9cNgQPK6Htj8yy+M58rw1jMP8x9+cA7bfoUP2o/ywdD1FznHv/yDV3h3MGB466WP8fU/OA6PnhlJ7us/OMev/PEZ3g3ALXz/md/k6195HzwQ1cckPH7xDPYfB65vZx7m21zB+t3T/PovXuatl26HvLPK993PW2/ezw21h3jX75/kBj7Aj888yl/fdws/9Wz/bNSf+tJJ3vWdj/OjN+8PBjKXueFLX+ZdJy5FE/HQUf76zaN6AFOFv372aE6FJs0t/O0Dl/jp/3SZH3/qft58837jX763dA3uuhaZwT5QmuQa41VKv3GNzolD+PVLFCcYcpc3vnMjcC313pXv3ATBmum05EyZ1nO59F6uAAfmwKsdD/abXOPDJ79GJTRQmFr8GeoHOfPzAfjsb8O/vAAnT8IT8QkmQRAEQdglDAcuPn//fy7x/uB4zL/5Fx7bR7O7Vi+cge8tJldCPno3fH2UBu/WfkP5wffD7Qf7s363A39BbOByG/z7LxiE++wizWcX9feEi9jtvPyVK9z5x68EgwzNu3/xz/h1jtNs3o5tvzKm3GU+eOwx+MEj9A8iNg0vykHrHL9+7JWQ/CvAokEkpPN3v/Fx/vpT/bNOf3Jf9/t5fubEB/hvbx7prb7ALbz9qRPwnYf46ZGfCNx3P3+dYzAxCn/3oRGXcf7RNQ7MvRF09K7y3ruuwT8y+N2lQ7xQvYMrd73KJ4bMgmtu5K8uMdJeF2F3uPKVO+CBsyy/eQmePcrG8X/GFb7K/Ubpu/MY6TdCfv6FoF79wh/Ar7wM7mmQxRdBEARhNzEcuBT5r/+H4vsbwYrLH5W48/8avOLyD/dCi3bfU9j2K8GKS+zeX97MVT7Et//5I+m/PXwlv9zhK9yTIvKeX/ir/M+NcdPPJwcz4/CTUsYLGi69xk/d9X7eTrk18qBgF3nHdy7xk4/fAs/mcxXj0De5v969c5WPPntmwC9v5U/e82DvrwMPnGU5c7/B7hFxD4oR3t8wLTlTpvXcHne9zLFuet73HJ944EH+5MQ/xv/UcxR3QL/cdgzRD8iZnzU/uKBddFnUE1A3D/2FIAiCIEyWXK5if3Okwfbp1d4el3/4SJP3Z+xx+Z7ZBoCZ4N3HHsOOX/y5bW7iAHf+ccg1Kw1jude56eJtfB8Scm/+4H39JSPT8KbFoYP85BsvcwMkBi/v+M4l+NA0lDLlMj+1fYif1IBD+VzF8vEqn3jzudzuXm98R+9PKO3Q+O+9pWvArXjPQrE7IHv2EN8GPhxyE5qW3LTsMObQdzl81x1c6a1U7I5+xnYY6peb7n5Fxt8zKAiCIAjjMMKpYkWuHm2wfdrje/dY/L3nV/iHjxSYe6LVk/jox4Cn4Ez4JJoreo/Lb30WXtjpQc0F/ZxfGetZl7nnd+HFRz7GW38Zvn4L33/mYZrN23PKvcIdDxzgxebtoSOjtcyLkb0opuFNiyP8+ORf8NO186HMc5kbvnSSn/7KmEE/+wQ/+56HePd7nuCGie9P1/tw3vkbn+THM7cwdBP+l47zJ1+5xof/9Q6+a+O+5/jEA/Dt3/8IbwTPfeH3b4W7Xuaj982A3LTsMCY4zesrd/LCszfpS5c+gvcV4IHQvqSpxZ+hfjl44Rz8ykngKHz9t2XQIgiCIEyXwl/+pVImgj/5AfzwxZQbsfe4/N/dXnnKqWK3/xKc+Bj8QtD4/eAc/KunMh74S/D124NTxQI+fQI++Gfwv/15cP9jeuP+K8G9491GdcCpYn/+jv/IuWd+I/Eel6x3t7z10sd4+UyZb1/sXvkrPvzAOe459spocqmniv0m/+Er7+u5rpmGl/k+msNt7Ef/jJ//54/w8F+m3E/hhhte5F2f/ce8K23wcde/4K3Yxvr0U8W+zN8/cQke+Axv1Y8YvnclxLBTxcZ9j8uZT/Kj+0Z5j4sJGe9oibz4b8B7XO56lV9qPDfWe1zSOHAyvvdidl9AOV07zHnjS0d55sStvVO4Djxwtu+atWP6mdthpl82f/u3d/LDF+/kDx8a/B6Xm/8HOJDhUSoIgiAIO8H4A5cYb436Bspd4s/f8R959Re2p63GrpB34PLOdxoksCAI+5ruwOX1/zJYTgYugiAIwm4zxgsoBUEQBEEQBEEQdgcZuAiCIAiCIAiCMPPIwEUQBEEQBEEQhJnH+Djk999pJvczb4yqyu5w5Hv/gP/uHf/ftNXYFbLf/pDk7bcNE1jYcb77v96Ju2Em+75Ht/mfHv6bnVVonyLxnM7bb99ptHdF9rcIgiAIu01BKbPN+YIgCIIgCIIgCNNCXMUEQRAEQRAEQZh5ZOAiCIIgCIIgCMLMs28HLvUylOvT1mLvMun42zfp4UO5AHV/2ooIgrAbVCdQ3vdN/TclpD3KQNoj4Tpk3w5c9gr1MhQKe7cS9eu64ix0P2Vo7WIlOmr8tap7O96vd/xWi3q9SrVcplCuk53lfOrVMoVCgUKhQLmaJTsduenZkQ+/Vdc6BuEmdZ1WPJvqNxp+HZo21IoTCGwPIO3ReEh7JAi7gJo1PKUcWymsaSuSA1cpSP/Y7vCfe45SlrPDOnpKWZOOU08pC6Vcb8Lh5lUjLf66+aibFpZSjmvwu1ljJ9Jt2PPS8rKllBNPZ8N8b2fJxOLesZSybKWGZSfPsRSgLMtSFigsJ+M3nnIsfV/n0f7f3gzITc+OfPT0tN0Zi2dT/VJVNmpnbFLy/awj7dFUkfZows+b8fZI2H1mauDiOTqTxjPQXmKUymdPNxQzMMBMxJ+nK6dwpeO5Om+F5aShyMZGqXC72o2/rE7csLh0Uhoa107+xnXMO1hDO+aurYBoWLN0bVp25KA3KBjUe59i/Bnpl7DJrJ3xHKWwjYOdSaQ92n2kPZo8e6M9EnaL2XAV86FahtImbHjQqGXLFELLwNU6lMtRsWrofmLZtdVfPq53l2ar4Lf6y8vVVsqzQ/fHXXaOL2VXM5aGu0vHPVviS96t/r1WLG7iNtTLUChBpxMNsxCLOxgSfz0jAhtSwow/2yg8E3u7jzaIv9Yp2HKg3YCuh0exAm0PWEn6A4fTPy1Mvx6Lt268j2GHSX7Ok24DGTXfhyhWYM2GbS/nswdQacB8LD0qNVAesD6+m4d/cQuwWayEH7qIDWxd9KcuNy07zGlxaqUDlsPGAF+p6cWfmX79gA3amRCnVsBZHRyWtEcxW6Q9SoYl7VFMqeuzPRImx9QHLq2qLgysgWpDMaP9qZZgbi26uLcIdGJyjeCe56QEUtGZ0OrA5pyWW9qC0jqseaBcaC4wEd/oNPw6LG/DRsyG5ZWk3DrgeX25jTVYXw5VThV93QYWQnHjubC1EC1gtXZgtxVbHG0ndRwYf12K0FbpYTYqUVGT8IzszRF/TzVhLa1TUtSV3eYzoWubsLyuOzIqsGluM9qoFWuxePPAGsMOMMvPedJtIBPI9606LDSJdiYnwGI8PQCK0GiDtwbrpdH9vr3teO3QpxNq8aYlZ8q0not/kS3AmodnevtNylRjPa2pxZ+hfmDezvSCHrK3RdojaY+kPZL2SJgO75zmw+tlWAFcBYPyX6uqZyzilVClBmrIrFkqFrSD3x2eB2sOKsXeLTz6MyP6QbpiHJdTK7CmomFXasC2rmAGyRUr0AYKVVCNaLi2C7VKX27JgosMjtNZwtReo/jzYcuCWBT1KM1F/+4Qq3iLuoLeLkCrli8OTe2YeH42JWe+XyiEfmqDF7NtEsTTI0wxKHfVMhQ2wWtP/vnCcDrNFbBdPFWBVpXSQoktPNozsmN9mH6m7UyYUyvgZIz1pD2S9ihLTtqjHEh7JIzIVFdcam1w53WGHLY0OH94d3TaMYIKLK3iiRQWH7bQcZJYDl5A34wx6VmHXcXUXtP4K8J8J33ZHMDbjv5tLaXLzVmQy7smZ7rthfzsdmcnXWALvB2Y+vW2s+Oi6zqwtRTMkucMuzSXNg+pseZKU5czZVrP7f/YYaNRoQgUKw1cGzorp3plbOrxN0S/PO0MmJ0kthfK70CkPUpH2qOZZa+3R8LkmLqrWKVh5kO4dXFX1Zo8AyqwSOVVhHn6hTTxybssO+uY2msaf+jl3vW05Vwf1puwdKx/qbOZrtZ2Bw7nqZlyptteys/FCrTXYGF58m4rF7cg0Rft7kUIXAfaI876FQ/PA02eCmea1lM0gflQ4k5Lblp2mD/4GEsWMH94YCM9tfgz1A/M2xkYsrclYC+V31SkPUpH2qOZZ6+2R8LkmPrABej7EC5pH8L4ZrTKKnoTW8TBVPs5liewQXEoE9oMuerAejVa2Fp1XXmFabiwXgY/9qxWXS/xjkwnpH93M9444U0IU3tN46+7ya4ckvVbUC4BTnQm1UJvQPRD8VIv66XzvBOHpnbkzs+m6RbKpxN/IVlFz1ovT9C/t1WHzaVoerTq0b0IlXGmtYLZ9+Z6950ePvX1JlgOq5UZkJuWHcYUqa3Z0Fyn3s2Afp2nmoC92C8fU4s/Q/364gPbmeDnQ1dbpD3qy0p7JO2RtEfCrjPtY80SdM87jx9D6SllW9F5A8tWygsdaec52ed4Y6vEOd+Op4/A690PnRkeOSrP7V9PPSM+x7n53aM4e/edkN4hmz03aW/k+M4UW5SKnlEeP9ov7dnx+wPjL6e9xuGZ2Jsz/oadm99Nd8sZHi9JJYL3BaTdMrTDJD8PsjkVNzv/Gud7N/qseJxa4Wvjnpsfi8C873FJ+ySPxfWUY/flLXvAu1J2WW66dpjjObZ+z0wvzLT3pUwrnk31SwSf2s4Yv7dF2iNpj3LEn7RH0ev7qT0Sdp+CUkrt9OBIEPYVPpSXYUP8XAVh3+DXobRNYrO5IMw00h4J1xlTPVVMEPYi/jPQmZdGQhD2E8WaXrIRhL2EtEfC9cZs7HERhBkm/hKv5W3wZFZWEARB2GWkPRKud8RVTBAEQRAEQRCEmUdWXARBEK4DWtVC8Hb54Z/yxI8BEgRBEITxkRUXQRAEQRAEQRBmHllxEQRh39BfVahmvq3aIBSq5TLlch2zdQcf3/cT70sY+It6eQJ67iH8OuXuik61Fdhfzvd+h14YA34Xfk7e8FPo5SfjvDBjtKoZcdGiWuiXlXqezCsIgjBFZOAiCMK+odJQeI4FNFnP6LUO7zRXaKzN0+msUIp3WHsdwfCnRKlUolQqUDUchRRr7Z6eC2md4u5z9mqHOQvLwWtUKNY2cKwOK6UJu6YVDzOvH4TVDT8jDge5zul0bOmXWWLhbNR6pzbpQepeSJXgxZ0A9tqAl2o2WSmVrq+BtCAIe5Z9O3Cpl6E8wbeqXm9MOv72TXr4+m3AsgVgevRXK9I/pZUOAJ2V0sD7m8uhTlp8QLIQdPg6K5TSrlsOnlKo2KcRer31sD0lXT0Sz4g/f78NXgAoUmsrlGsD0FlZzlGm5jk89OzXedbaHo5lYbGNN0DSdrvp52JbFpblsFoBv76OToX+AKtQKASD1JLxIHVqtE6x0qE3WEzHwvG0/Topmjy1A3ZVJ1Bn7ps2ZEpIm56BtOl7jn07cNkr1Mv6SMO9WgH4dV3oe8czlqG1ixXAqPHXPVJyr8b79Uyx1o4MFoK+73BsN/S7Nu12g153rtJAqe5qDViOF/m7N1DxHCzDx1Ua4UGNh+d5eF4ozECfvv42juclBkOqXYu8o8FvtajXq1TL5SErMj71an+QV64OWD2aVi88iHel2hw+FV/xGELELaz7WQgGG00WCiVWOh06nSYLuW1scUr3+rEctz+wCe7abnSQCj71cnL1yDStzOR8WvUq5XLI3nI1o8PlU1/fwrJs3HaNYiits6KhsqrzdnNhsvnBr0PTZsCKz/5C2vTxkDZdGIqaNTylHFsprGkrkgNXKUj/2O7wn3uOUpazwzp6SlmTjlNPKQulXG/C4eZVIy3+uvmomxaWUo5r8LtZYyfSbUZxLKUsW6m82cm1UYCynPRfdu+blEWlPOVYXXlPObatbNvp6+Q5ygKF5eTS03MshX6/Yf8TKNTVL+1eVjiWZQ3RI7DDcoLy2f87Ku8q2+B5vU/v98Hveh9LOV4/7kb92K5Srusq13Wj+g36RGzq6mCpjOzQtzyRL1xlW5ayLEe5MbstxxuSz/q2d++bppWxnGsrsJTdq3C9QM+krVrX7nWDOAzHZRD/Q4uLYVtto4amxcwhbfpUkTZ9fzBqmz6MmRq4eI4uNPasZ7wBjFJw9nQlNwMFMBF/nm4swwXGc3XeCstJJTd7uI5556D3m7SOf0anOJ3xO9z9j53o8PU6/0GHtPd3bODS6xC79tABTPZApBcpSZvTrg0ZuAQG6A51QqYbb0mbs/TR+oYHh937Bp3lrh7d50XCjOsUdNp7cZnVuc/+xAcgRumROrAZkla55ZJx0n9mdl6O6mU+wMt4rFFb7TlKYecPf5aQNn33kTZ9/zBKmz6M2XAV86FahtImbHjQqGXLhN8YW61DuRwVq4buJ5YMW/2lz3p3WbEKfqu/NJq6Qh66P+6SaXwZtpqxrBl/O245vlzb6t9rxeImbkO9DIUSdDrRMAuxuIMh8dczIrAhJcz4s43CM7G3+2iD+Gudgi0H2g16LjbFCrQ9YCXpyxpO/7Qw/Xos3rrxPoYdJvk5T7oNJUd+wdflIxwn5Sp995URypFpvFRqoDxgPb+LQte9K/4Z7koW7LcI/67rEhbfyxK73g27v08i5H6G3udSWulo3WIuX5lUGn23pObCSG47/sUtwGYxrExlERvYujggUmN7fcp1H4o11myg+VQ0zwd7KCxnlawdFFF9wFo6lowDv055YYGFhQUW8mwOL83ptIjsESrpfR102Pag9VT25vSeK18/EbV7oKfd+trBD7ztTv9HzfUZ8oX3aT2zSQeY7236ieblsOtjO9VXK7p/Z+i7fEza6hCnVsBZzVRf2nRp06VNlzY9P5MbA42Ga5uNxmySy4Kuk71MnTny9qKjdMfSYbie6i0PJyaggpE9Bkuog0b8npNcNnOdjFkDWykvJOi5epQejyY70KsbN91ZiISeOUf5RjMXOcI0ipch9prGn00ynnrydl/Wc/QzLCv0bC9Y3hxke3c5fUQ7ujoa5ecJz86Y5hcvMTsd0y1HOcoTLxEdUmbU+je7s+8jfobNasdcwjzPU57nJa5nu6HlcM8ZRb8hs/Nar/hKSNrqSv+a59pBnIbdkXoBJmbt058xQNdePIX/7sdTlqtfP5jYikskLZIrDZbjBGGnrSoMWmVLulhpvaNpmr6CsQsrLuEVuUGrQF052x1YXobGez+4XDOnw1ZbpE2XNl3a9PHZN216DqY6cOlFzBC5cMY0ZWAlF0qsSNgZmXciz1XZhS9uX2YhdZMNgZ3SkDhWik/xDFdypvYaxd8QncJ6eAMayUEVZVY+MbUjV37egUrOKL8M0yNHOcqTn1N1DuqJiIqme02CAUfg9JN0UYqHZ/qJuXmZL4O7yrZtZWe6XQ1x24rLT2rg0hsw2RkdudjzMt3H0n4aG3CkDBrMTB7kKta1w1auUcc+feBiOa5yXSfHoDNp0665inluZn7uuyM6MTv7eSLqshiOj+RAz7StDjNob4u06V1BadOlTR+PfdOm52CqrmK1NrjzsJC1nBti/vDu6LRj+LBlkepSUZqLyaHjJLGUuYC+GWNxmJ/GLGNqr2n8FWG+k77kC+BtR/+2ltLl5iwY5FEzsh0B08zPQ/NLypJ3YRk6Q36WFVbe/Nz7abBMvbUEqs1AN6vMI5KDo2tLwyqYYo22Uniui+u6eL3Tw2wcx8GNu97MlXJFQ58KjUVoRlzAWlQDFyfL8VCZR9eaU5rLPvtsoO7zi5RSI7rIsSULOiucaoH/zCYdLJzV4bq2Tq2gT+VNcynTx/HmMzk4Jax7ZPT84WjeCFziNDauaeC2ywbrLCysBCeTBRqGXRC7bmU9F8LGUDe5HaNYodbWLoXN9dBJZK1q/6jt5gornf6Rx2F9i8eWdB5vrlMuBy52totS7YRbXZ62GsxOEpM2Xdp0adMnw35s0wcx9T0ulQZG/m9bF3dVrckzoPBFCl4R5gFXkX6mSXuX9N0tTO01jT9g0Yb1NN9bH9absHSsf6mzma7WdgeDd0WMYEfALOfnaglYAy+s/wbGxwBHGCU/d/3o12HNg/YQP/ow0X0uHnqcYdbBhhangr0WpZLubGNtsbmywkLg89/d7zCfK3PEqDR0B7i5QP8IX925TN+HkJ/i4XkS7+RoPUWTDN1tB9e2oLlAqZy+z6RYWws6yVV9VLC1xLFh6raqLDQBy2GjVkQfG9zdhwK2G+skt1q0Wq3+88NHHpdW9GDJi+5dshcr4F/U7aU1R4kS3XGb7eYbWISP2u4dW51GfLA0Nfq29ugdMd0/+js1WxWPsaQ3CdHpBPu0GhUgSINWIlhjX/WBe1sCZrkONELa9HSkTZ859nKbnsbUBy4AFKHRBm8J1kvJjVSVVfQGrHAO96EVbOra8TPGJ7SRb9WB9fCGKLQN682oXMOF9TLEX87cqkOhOvrz6YT0747AxwlvQpjaaxp/lQbMr0Q3n/ktKJcAJzoLaKE3lfmheKmX9UbAvJNepnbkzs+m6RbKp+NuIJ4rEXpTOFRHnZ0hX35u1fXmRdZ0BVjJ2TuMvnSy30E2oVXV7wCx3fD7WpbYCDbKd1ZKvU640ThoEJVVwv3iRAd+XCoNXDs8Ex+8RT1T98NUGm08x8bqNFkolFPyUIVVx4JOU8fT2pDDBvw65QX9TK9dw6uapMlTLCys92dGizU2uqtg4U64X++V++ZCd1CjN/971f4zmgt6EOYHA6KBxaI3kMzYmD5V9HtiytWoDX5wQEJWWqS+BLXaIj6ABIvuQpxfX9dpkLYwN6St1r8fvtoibXpfVtp0adOlTc/JiC5mO0f3rO64n5wX+MWFxnaJzUFO6vhPf2yVOJvd8fobDrFVz4+ve6/HsI18Oc587x4j2bvvhPQO2fieRFMAACAASURBVOy5SXsjR0+m2KJUf6MWKRug0p4dvz8w/nLaaxyeib0542/Yme/ddLec4fGSVCLbb9rUDpP8PMjmVNyM/BvcM80vnht9nmUp5YbLwAjlyCRecp35Ht88H/jrR8ubpxzLUpaV3IeQuScAWzkpm/BVeA9FOFrz7nGJ7KWxgrgz2Gid0NNkk7WnHLsvb9mxvRMZxy7HjwmOqJTYrzJET8tRXsjm5Ob86O/6zx4Ufvwo32AfkxfbTN/bA2MpK7KvKGV/S0q8996vEo7X8Ib3VJ0yjlEekFbGcq6trPgBBJatnEijNGT/UEr+C+cDy3FjcTuAjLba+L0t0qZLm54j/qRNT94zzS97ok3PARMOTxD2P8EmtkkXRiEHOV4EmdYxjL/LxHEc5QS1daJDO6CzPnzgktJJHvLuleRntHdtTAfDU8IybTWNz3CchOM4lkZG78TJeNKAAUXesKZNZDCamv/i+XT097vs9fe2CNch0qbvKQpKKWW6OiMIgnaFKG2DakxbEyEfXb/9ChVjn4EW1fI6WyyxkXgPix8slRcpJl9OEnLFsXC8CbuCzSQtqoUFmti4O7RpvVUtsNCMxWerSmFha0Ac+9TLy2wyz1rbXK9WsMmjYp5Z9gk+rZYHlKhMxK9DEGYbadP3FjJwEYQhtKqwEPK5tWzYaIx+IoYgCIIgCNNB2vS9jQxcBEEQBEEQBEGYeWbjVDFBEARBEARBEIQByMBFEARBEARBEISZ553TVkBI8iIvTluFXeFO7py2CoIgCIDUu4IgCHsBGbjMGC8G/64XpBEVBGHaSL0rCIKwNxBXMUPqZSinvCVYEARhP1CdwNuZJ43Uu4IgCEIYGbgIA3mu/CAPFR7kZP2maasiXIfUy1AozFLn1adeLlCetR7+mPh1aNpcB++a2RtIvStMk9mrdwWhz+wNXHyoV6FQnrYiUWptaNd251nnq7rRyvo80dodPQCOth/nUefa7j1wEC1dmaZ9qqPGiQ/VciisMrR8Pfu8i9G8e/hQHlK2WtXseB4rrkeg1gbP2dln1MtQroLZUMRjuwOdbW9nlZoUhvXpqRVwVndHpTxIvTsDSL07PlLvJshX7wpCn5kauPh1KJdgew5Ue9raTI8jjcc57b4K9llOq8cjn8/Y09ZuilRAKf3xHLCc/t+NUV5u3YLyKVjd6IejNuDiMjSH/3rfUmmAcgE7FC/Bx92H+a/WhrU5KO1y52CnMa1PZbVFI/VuBlLv7gpS7wqCGbMxcAlmX0qbsOFBI22GLWWGplpOZni/DuWQTD2YxUnMWMTDK0C1npwVqYbuJ5ZNW6HnBLMl5Sr4rb4OqQUydL815nTD+erxyKzgyfJRzqeEaSp3uX6Ukz254zyR4apgFF7raGS28nKrH/bJ6kf4/nimD8Ygv9TXYWkViuEOW1FXqN12wq/3f0/8WnxPQCs6OxbOB5GZJVM5krNw5XIsz4TCasVsjue9ehkKJeh0YrN5Y6xuDtUvp1yk/AZlcuTn5ojnSg2UB6z3Z3+TzyxQKCzozlVzgUKh0PuEXce0XPCptmhVy/2/y1VaflRGp5N2QUsLT8dLlXL4eUE4qZjUpyEGrrZIvZuK1LsZSL0r9e6E611BiDP1gUurqgs1a3pWsJgx61ftyoRmaOL4dVjeho2wTDCL43jR2aFqCebWorMai0AnFmYjNNOUoKILndWBzTktt7QFpXVY8/TsSXNh/KXQy/XjPFQ9BOhZwfsr/etP8yKPev2ZwU+uXePp5aOcj/3eVO7L25f4ZG+m8Wvcwa/y5ZUbE/qYhEflud5s5fPrx3lkHf6J+1Utv/jGmLEymKH5xYdN4FhGfmsoqADFoGK1QveKNR2mY8V+VOnPjjXXdT5YcvW1jcX8cn4d1gHP69uxsQbryyF3iiAsG1gI5WnPha2FaENQawe2WLEZvSGrm34dCtXgcY1+OTLSL6dcpPwGZXJ5JamPSXjG6dGlCI02eGuwXkp2mCsNhVKu7lzZLkqp3qcdWq6IyDUXWNiax1Xda03Wn/G1TGQatUitrVCeQzxbtaoFSitbzLte8DyPtfkmC6VCopNkWp+G43LQaovUu1Lv5kHqXal3J13vCkKcqR6HXC/DCuAGldUw5sJ/BJk9zKkVWFNQDMnUNmCzFJVrVWHLSS5zV2qgRvGntvp+2IfnwZqDSrF3C4+QTgAVaCuDcJv38lDzXv09sVR8iD9ducbH1SVuCV29pfJNTnCUh6qHON24NKbcVY7UzsD2gzyd+7kxbZde5ETtUkj+Eh/c4SM5h+WX4PKOYC1FffOLGRl8kFwiPwf32+gGTTWiYdku1Cp9uSULLmJWtlJpQqHru5HiqmCq3zhylRqwrRvMvM8NY5oevbBUMIu6CV57nHxi47YbQRpUaBgV/BCtKgtNsJwNGt1KhSKVhoezVWJlvc5qpUaR/PUpBKstQ7brSL0bRurdYUi9K/Vul+nVu8J+ZqoDl1obDldhoaAL/yB/2YYL5QXdMANggb0UcoPwYcuCRNkpwnxKePOHx9V+F7DPcrpxicv14zyyHbvnv5e/4FaeLzyY/lvrGnApn5x1jftTRA7OhTaJmoYX4wOHk9d2kqH5BaCjZ4pGbmAGYJq/MuV82AKahYz78VlHYHHShti6MfLrUErkP0P98sillV+gFO4JjRAvkK+8+y1YXgCcETvUYezFsfKXf3ELgM5KicJKmsR2r4Oepz6F/mqLGtA7kHo3dk/q3YFIvTsBpN4dv94V9jVTfwFlpQFqFarLUFgHd6M/axYVjM6W+T6cWobq4aCBLsJ8WoUYFLjILBCwNdaUyO5yS+0Mp+MXi9/lA9zIx9VzHBn0Y2O5N/hA5xDnISH32vaN/Qg0DW/aGOSXJQueakFlFvNB0PFbyzF7vmOq1CAxUW2qXx65jA6Nt00o/+1gvPi6HmoCrpdRD+0yxcPzQAfbVUYboY3rU8xWW6TejSH17mCk3p2cKlLvCkIqU9/jAvR9HJe0j2N8Y1jX19P3Iz9JNIqrDqyHN3/5UF9O+k9XVoEVqMc2jbaCDWo7vkFsIptEr3K/C0+XP8LlSBg3cT7km20ud4lfc27k6eohLsdkno4c9WIa3giE4mWc12SY5pdaG1iP5QOCfFCO+e12+jr5wWbMlXjGmjANF9bLUTu6+nV9n0eiE8p33Y2lI4Rnqp+pXKL8BjLrsaOGdiJeWvXo3pDsxrPEnAVwsaen36pTHeXdLqU5PVF5sZuxWtRPbUbrq8oqjgXNhTL1UGXRfWahUE0eHzukPgWzk8Sk3k1D6t0spN4dgtS7CczrXUEIoWYNTynHVgo7dMlRyrKVsq3oIYG2k/JzRymrK2Mp5XhK2ej/48+Jh2fZSnleNKzkwYTBx1ZKudFrjqeUa4fue31dIs93+9fdmF7fUt9Sn7GTz7vHPa3S/j3qvqTuidhxVd3jfG10Oed76lBE5ox61Lka2PS1XOGl2aHT5SV1Wp1W31LfihrvZsRX6H5WetjuaPmll9/i+WBYvnKVcoLwrSBcN9PemBmGckop5blD7EjJg0rpPN+zJ2Z3xJaUeEnTLxy/ufTLK5eiW68c2vnCM41nx0pP80w8V9kWCoKPZSnbcYPfu8omdC/ysRL52nNtZfXCsZXrOv2/e5HuKdcJyQVhWZatnHgFktA1WZ8qlVEnxn8q9a7UuyoZ31LvJuNE6t388Zy73hWEgIJSSk1pzLRrVAsw5+2N9xS8GPy7Hrgz+CcIwu7R9Z1P20w7SaTenU2k3hUEYS8z9T0uO41fh6YF3h5oPAVBEHaaVN/5CSP1riAIgrATzMYel0niR1+kVNrUG1Sl/RQEQdghpN4VBEEQdoH9t+JSNDyrXxAEQZgMUu8KgiAIu8D+G7jsca4n3+PryVZBEGaX66kuup5sFQRh/3FdbM4XBEEQBEEQBGFvs//2uAiCIAiCIAiCsO+QgYsgCIIgCIIgCDPPvh241MtQTnljtCAIgiAIgpBNtQB1f9paCEKSfTtwEQRBuO7pnlGc1QOpV/tnGBcKUK6CdFb2BU8W4MlW//tjMzSRd6UF5+rwZBk+X4YrA2TPVeHzBf15rJotOw25adqxk/h1aNp74+WxwvXH7A1c/KAtLY8XTK0N7dpkVBqGX4+2/Xu6D+BDtRyyo6zTY8dXr3woj5nmuZ+XkmaFsswyTZpc5WNY/jNNtyy5kPx1QVuBY6Xf8+uwAngKVPBpN+TlKzPMubLu0J7zgVbQwa2mCPpwGbh8sf89K6zEpwwX/MEyj1X7Mnm5UocvLsArm3C5M9zes1uw5MHnFNy+BV9MGSBMQ27adhjlgxE5tQLOavRavbxH+zTCvmOmBi5+Hcol2J4D1Z62NuYUa6BcwO63/0rBxiIs77EOUnUZ5jb6NnhrsNmctlY7QPDeCRtwVczekgxeJkme8jE0/+VJN6t/37XBdoO/Pcjoyl9/WHMyUNlDHJgP/i8CJTgIHJxLEfTgNeCWw/1L4e8Ad7fh047+vqR0R/lzCpbmdVk652uZJRuw4NMhmV+mL5PbhpoO4+E23D6oILbgbAeOrMFtQR69ew3owPOt6ctNzQ5y5IMRyFptqbVhbQ5KBai20n8rCLvBbAxcglnW0iZseNBIWymJz8QWoFpPztJXwzO68VWCVnQWtzfr2+rPzqYWyND9Vo6KuliBJZIzwYkZ5dD9euheNVap9X4TmllpxT09yik6tqJhhu2NzKC0oEm0wipWYMOJBheO457u4Rnu8MxPir3VctS2ehkKJeh0hs+KD7R31PQNUazAmg3bXo7nhjGwN0sunA96qxTllGtxzx/T9E17bkY5MrZ3DBLlwzD/ZYWVlm4mmOTnbnyU68EESyz+4kw0/sKBtWJ/xx8ecf3KWD7sZqTSCnRWooqm1n/VfkSk2ZBHv3jmy5rCjUdyuar/TpSjFLlweN0KNdwY9CrZclQ2jx1+SyfqsKXpYfa2qhQKhYGfcN1xc7hzWoRbUqIuzM0leoMYU25b1R3hV54ZINOAey04eypHwDm5cjF4ViV0sQJHCFaSpiw3LTsgfz7IQ9pqS0+dmp74YV1n+Um3CYJgwtQHLq2q7rSypldZihmzf9USzK1FZ2wXgfgKbaM7A5vW2akEs60d2JzTcktbUFqHNU/PCjcXdnAptAXlZVhth+xow+FT/Y5tra09OxwPGrEKTHlgWaAa+pJfh3XA80Kz2Guwvhxr3yv9WefmurZ3ye3Peofl7I5uo8NxUKxF3e4awYy144U6mUVou+hZ7kZfttpN2669G8loqbVDtqlo3IQZau8E0rdVh4UmLIbi3jieDe01yQfFWnJloFjTsgnPH9P0xawc5bF3ohjmvzTS0s0Uk/xcaQR1yiYsb8NGLP7C/dWJx1+loQOxgfWyDtwNAl8MTaPXy7C9GMt8y7ASqyW7GclzwHKimWGE+MulH2tR17S1OViO+7j4ehZrLRyBKT2pVhWW0UtwPVe3VThV7kd0rZ1sDGpBwUuUI0M7aAWVykYsrrei4ZnYW2mglBr4CbcDBw4DFtwcekx8JeVcGT6/oL+fLfW/n18Yvg8jD7ctAU24MKHw4ry+nX3vte3py5myE881yQejYLS3pQiNtl7lXi/JIUjC7vPOaT68XtYu1u6Q9rJVhS0n1pEnGP2Pso/F6neEDs9rb4lKsXcLj5j3REW3jXnpupCrILD6OixtJD0zKqu6U9ONhGNLcCpQohtHqh0ottT/3akVWFPR8IoVaKMnR8MDiC7WUrQTWIzFacOD+ilYLgSdWQucNaiF5Yp6dnthWfcButTXwV5LPjOygh1UeqNgbG/O9F0o9L9btu5nhO/njedh9prmg1EYlL6m5WiUfDUK8fIBhvkvYGC6FaGdlc/i93Lk58580v5KDZ4qQKumk25H428pFhmV7vcWrMyDihXUWhu2C4xFpWGudC790JFHVY/YexkzZdmsWExWwutbsBHXqwirS7BcD8IekUw7gOqCHuVWIims47r3yDz25qAEB+fhQPDnzZa+FubuNtxWhy+uaBewm4Pv93pw9zC3QB/OLcNrFiwZRt8VH3E33G0M8sEonFrRWduEYtAvqpahsAleW7KBsDtMdcWl1gZ3XndAhrnwzE9gNmHHaUa9Apa3dWHust2Bw2kluwjznf4kYfEwNJ8CfNgEHLTHR+upUDz4en5voRB9ZqEAhQUSk39dhsZjEWqN/iSmtwHb68lZlUojmB3vKh200/G2uOHC5kLMdWqUGZoR7TWhu1fCc3U4Xsy1L89zTew1zQejMCx9h6b/DsbzsPIBGOc/GJJuOTHNz1aGH/mcBRd9djb+AA5ndHb9i4OV2y0G6RfPAN3PQhO2wr4wlaBhKEV97eL+kZ359J5S8TB0RpgaN7Gjd39IF83U3pyuYhTh4dBY7e52bDDiw2MFPVAB2Ax9P1vKPllssxBs8C7BK/Pw6TbcNtjCHefmAXs2wvs5piVnyo48d1g+GIG8J4l1XZK3lgJvmfEeLwjGTN1VrNIw85ncGsG3dNeJbT6OH9DT69zE8WHLCk20V8DeAv8ZYEmvwGw+Axe3Qq4wRZgnukF5kJuVCa1qcgBZLEJjLb0fsOpo1yQfPTud6hdbiXpyeBvA5gib+3bA3sQjKtBe0zPvvWTK+1wDe43zwQ4wtBztZDwPKR95819PJi3dRsAkP2fp0RuM7kI+TWVQZ317yJFHu0HxGIkMEMkMsen9rttW9zSFjeD0hV7+qIC1lbE/ZsAgblKkFuAQpvbmdBUbShEeVsGGevSKS/j7wxmrKOHN+Q83+jP5g3h9G7D6G8knzYFgkuVCbK/neaJuUdOSm5YdO8WgvS0RunuSAxfs3Tq9VRC6TH3gAvR9Jpe0z2R8hrqyCqxAPVygfe3XXi7swgaxETfnx6mtweYy+LEZ/foyzMdcUuaA5U1YOha0gZt69SXchjVc7Yrtx3Rq1YlukM9BcyEWz+iVHnsxKVus6VnqU1U9Ox2fqfEDPcL6FYm5UoXphOK3u4k8ZMdO2JsgmOxdDuVB0+ea2psnH9DpTzT7QZzEtywYm2ZYjnLHc6h8jHsaW578FyEl3fIyLD+D7isn9lfXtQtet2zuSj5NUAFnKzby87Wv6binAg7bnG9EEVyC0w3C1wMd46d1RDY6BUcnxVkLEjxSjnxdca7FelOdzb5cd6p41PHcqgMry9HGwA+d4+8HOpvauwNc2SK6ByK2H2JcLtT1aX9H1swGOSNR0YOu8+v9fTnn1gEL7qnMgNy07NgBTFdbWvXonuSKLLMI00DNGp5Sjq0UdvK6bUWnrSxbKc8LiThZ01tBeG70muMp5dqh+55SVuheD7d/3fVUgrTnWk62fRE7rNizwmFaSnVvOVZ6mJ6bjBc7JtezMf6xknK2kxKem2FLyPYsGyx7uH4R+SFyA+3Nk75u9FmR/NaVsw2fO4q9OfKBFZZxdV4I5zHT9E19bko5MrW3h5tRbkI2mJQPo/zn5Us3OyVeMsumMsjPjo6bsfJpXtKMyDLECWeGIFN1M0w3IjMzDEqllfVwIUqJl1z6ubFC3s3UERssHVkJuWEFpJuZU3QMx4tl64o8nmnz2OG5SlmxAmw7yWeb2LsDPG8p9XuWUq/HvidkiH1icqkyKPWHllLbafFswOtOepi/h1J/mBLVz9uh+3bSjmnJTduOSWJn1HlhHCu7eAnCblJQSqlpD56EvYtf13sV2hPasC0I02RQfvbrwSFW4hohzDjnynB2Hj7XgAtVvVr/OamjhRT8OpS2mdihK4Kw08jARRiLagHmPPMNfYIwywzKzzJwEQRBEITpMht7XIQ9Rfi9bE1gpSRv0hX2Lib5uVWNva9xx/aqCIIgCIKQhay4CIIgCIIgCIIw80z1BZSCIAiCIOxdLlT1CWMmHHSyj2QWBEEwQVZcBEEQBEEQBEGYeWTFZQK8yIvTVmFXuJM7p62CIAiCIAiCcJ0iA5cxeTH4d70ggxdBEARBEARhGuzbU8XqZf3SYkEQRmfS5UjK5Wwh6SEIgiCMS7UAdX93nrVvBy7XK8+VH+ShwoOcrN80bVX2FdVC/8hc6ehdf3SPTJa0n3HKQSHNakHrobOvCwUoV2GXGlthZ3myAE+2+t8fm6GyeqEOj5Xh84XgU4ZzGfnuXLUv91gVrmSEeb3JmXClBefq8GRZx/GgsIY990LofvyTyFt+8MwhdjyZEV4iLxiGl8fencSvQ9Pevff5zd7AxQ/alvJ4wdTau/eiuPNVPVjI+jyxi+84Odp+nEeda7v3wAz8er9v0Hsnht/vV+y1d2E0FCgFnpMh0Ir2h+KfvdrhnXQ52s1yCYAP1XIoLcq6fsmbHpXGgLQfU7/ymHXdOOHtenrsNG0FjpV+z6/DCuAFhVkpaDdAXp47s5wrhzp2raAjl9Zu+HAZuHyx/z0rrMSnDBf8wTKPVfsyebnSgs0VuGUNPqf0Z2kJzpaSHdZzZTi7BUuelrt9C76Y0iG93uRMuFKHLy7AK5twuTNY1vi5Fiypfrp9ztWXbzkckvHhsRKcn4dPB3K/zAA77FB4wefuYv7w8tprVI5G5NQKOKvRa/Xyzs0LzdTAxa9DuQTbc6Da09bGnCONxzntvgr2WU6rxyOfz9jT1m46FGuggkLeXA8yb1H3K1wbLAdUY5oaTpiK7gfZgBvqFw0c7Ag7TnUZ5jZCabFmfnSrsA+x5mSgsoc4MB/8XwRKcBA4OJci6MFrRDuUkc4lcHcbPh3UxeHO6NI8bAaDiLvbsGQDVr/T2O04bqYMNIxsqOgwfrPSv3bbMW3LK8+EBFtwtgNH1uC2II/evQZ04PnWdSxnyIGajueH23B7xtxFnufe1oDPteG20E8vPBXcC6XlhVM67y014ED3t6twcEQ7TMMztpcc5WgEslZbam1Ym4NSYfIvKJ+NgUswK1rahA0PGmkzgPGZ0wJU68nZxYEuPa3orGvPU6DVXwlIjeDQ/daYw8fz1eOR1ZiT5aOcTwnTVO5y/Sgne3LHeSLDRcwovNbRyCrR5VY/7JPVj/D9UQy2wQGWh81wp82MJ/SLruKE062bjrnSN1jdC68C7bjnSMiGVszmtLwXfqt7oaDzeyIPDouXsMn1kL1BHFdTnm/qGheWi5TNVrZcang548XIjhY0iVaoxQpsONFwumEkrhXSPY7C8duth5JCyfxcLUdtqZehUIJOJxZ/8RUTw3xqHB45XB+Hlcuc6WZEONO3Yn/HIzvi+pVWadBP0NIKdFaikZNa33fDzKgM8ugXb7SyKphIhg7kyin6pcmFw6uXk4navVYoR2Xz2OG3dOUzbOlymL2tKoVCYeAnnG9uDneuinBLStSFublEbxBjym2rKYOIuEwD7rXg7KkcAQ/gwjPJgdaVi8GzQp1iKnCEYCXpOpWbNOM890ITsKODGQAsuDn8d5AHR7ZjwuHlLUd5SFtt6VKpgfKAdV1ljNt/7jL1gUurqhtb1vQqSzFjNqxagrm16Ez2IhBfIRvo0lPRkWh1YHNOyy1tQWkd1jy9QtBcGL/jerl+nIeqhwC9GnN/pX/9aV7kUa+/IvPJtWs8vXyU87Hfm8p9efsSn+yt8HyNO/hVvrxyY0Ifk/CoPNdbJXp+/TiPrMM/cb+q5RffGDk+ahvASnofAdADw2VYbYfStw2HT8U6P8GqhmvrVZzSOiy5+trGIvnTtwjHVvUqUPe5a0BpQq471aA/UKyF3HFCKzMLoTztubC1EC3Yfh3WAc/r67exBuvLsbgcFi+h8Ja3YaNr7wawrDv3jgeNUEU+1DUuRHiFyXPAsmC1EpUZGl7OeDGyowJ2R/fBwmU6nB7FoGK1YvdVlsfRJiyv6wkWpfRv5zZT+m/dOi2sY4xaO3i2Fa3XEqvNhvnUODwM09ekXOZIN2MqjX6g62VdCNwgwhdDPb16GbYXY5G8DCuxVqGboJ4TLPWGIieWTyeuH2tR17S1OViO+2j4etZuLVzQU3oCrSosE80I7VU4Ve5XCLV2MlFrQQLG87OpHbSCSnQjFtdb0fBM7K00UEoN/ITroQOHSXTi4isp58rw+QX9/Wyp//38wmT9/m9bAppwYdQAWn3Xs80VwI6uwry+nf3T17avX7lJM/JzW3AeOLIYvdxdmemujuDDY0EejOdVAJpRN8UnYx2j3OEZYFKORsFob0sRGm3t7bBemozb/FSPQ66XtcuxO6T9aFVhy4l2rCAYzY3in231Oy6H57X3QKXYu4VHzJugotuKoTTv5aHmvfp7wkXsEH+6co2Pq0uR0e4tlW9ygqM8VD3E6calMeWucqR2BrYf5Oncz41pu/QiJ2qXQvKX+OCoRyEXYc2GhWq6e1h9HZY2kh4clVXdSU/LHNZS1De/GJbJkb7xgXJlFaxlU8PSWSj0vy9mi2G7UAv0LlZgyYKL9M09tQJrKhovxQq00ZPBaXE5KF4S4RX1oHKzZGhYCo1QuWhVdd9noz2eN07ueBlgR8OD+ilYLgSTHBY4a/3w89IhNhAo6n7hdgFatWhWjazEB5X3qOxEPh1G3nI5LN1GYimWWJXu9xaszIMKhx5KjHGoNMz9WHPph260qOqRX69B85LhFovJRmd9CzbiehVhdUkvaVfG2KyUaQdQXdAzApVITaTjuvfIPPbmoAQH5/uduJstfS3M3W24rQ5fXNEuYDcH3+/1YnsH0vDh3DK8ZsGSYfRd8RmtggtcxrrPPNuEJxejgxdhdklzE0vQ0oOM1yAxMAWdfw/Ow/FV7bbV3aeCm5EPhoRnjEE5GoVTK7pqMKEY9KOrZShsgjdGP2GqA5daGw5XdUfPdgfXa/MTGB3uOPZZTjcucbl+nEfiI3f/vfwFt/J84cH031rXgEv55Kxr3J8icnAutDnfNLwYHzicvDYOlQbYBaguJjvz2x1YTMvBRZjv6MnEeNaYSH7w9R6IZniCdoivqAndQpNq+QAAGkpJREFUgXh1SP9pcVAl5Ov5zGZWGBl6ZsaLD1sWJLpjRZgfpKQh3UFLewL7lobGSx47ilBr6A+A78OpZShfHG1TurWUfn3Ogot+v2/XcKG8oCdm9A/BXspwgx3GDuXTYeQtlwPTbVQOZwTqX9QzEmnM7ULkdBmkH00oZGyosubox14F3Kf0klXvvqVHjb2pzBZ05tNb+uJh6Dw1kvo9suzo3R/SxTC1t1WlsDB4k5nthlZdivBwqLDfHR/8BxuZu65hm6H68mwJXnHg4ZQyF5Y7aMOnQ/sJdpyituP1Apxfh3sq+tk3D9hzEN6PcL3JTZpRn5vpJtYlNMg4mJHv7m7D3aG/D9Tg3k04G8oHecIzZlg5GoHuaosyHH34LVheAJwRFxxCTP0FlJUGqFXdMBfWwd2ITewEbI09dbd73FI7w+n4xeJ3+QA38nH1HEcG/dhY7g0+0Dmkly5jt17bvrE/3Wsa3i7QcHUaz8V6mPFOX4+sTuqEqJYAF7xKqD/ga/eYSdAwWaXLIuiIr43ozZIaXtogMBggjdNOTHLQMpQcdrSq8NRidEKkWITGGhRG7Od1NgnNMvdJdPJjq7TdAVP1cP6J553Op1lMq1waMaizvt0ZL0NPguIxYNt85SayyuOD78FyCQ53K4AKWMEpJ4n0GDCImxSpGSGEqb2VBmqSp7IU4WGlj67dbOoVF0LfszqZg+5l8fo2YPU3dI/LzbHx9YFg0ulCKzSr33VPOnz9yk2akZ6b4SbW5UorWDkBjmStnuRg0uHtBMarLd2JN7Qn6qBqxJSp73EB+j5wS9oHLr4vsLIKrEA9trG6FexTnNSGn0wmsjn/Kve78HT5I1yOhHET50N7YszlLvFrzo08XT0UOvpRyzwdmdAyDW8EQvFi9OKhit6ovxKbcKutweay7tz18KG+DPNro6tnwlyp3w/wgwI25GTB/Ph6j2peGq52PfdjcduqM9JR0qsOrIf3ygZxPI699XJy0OLXd/b45zx2NBdi9QbQegrseAPU6edhP9hkHt8qAXqhoxxOE1/HwZbTH0j5QfqE063IgL50J1SvdDe4x9I3Vz41CM+EaZbL4VTA2Uo5baOsW8hxGLY534giuOiCEAkj0DF+SkNkI1Zw9E+ctXntEhZJDx+WN2EtNprubPbluqdJjFrQVx1YWY5tNAu9t6B7ZKSpvTvAlS2iPvzxzc1jcqGuB0NH1vKvzJwrJ9/DcSV0slUvvIo+0ez8el/23Dpg6dl4rle5STPCcwe5ifXcvSx9vHLWIGNQPji41M8HpuFNE9P3trTq0T3skxi0AKBmDU8px1YKO3ndtiJbTpVlK+V5IREnej/ysZVSbvSa4ynl2qH7nlJW6F4Pt3/d9aJqfUt9S33GTj7vHve0Svv3qPuSuidix1V1j/O10eWc76lDEZkz6lHnamDT13KFl2YHKIX1kjqtTqtvqW9FjXcz4islLWy3n44WSlnOkPS1kmG6mfr19cmTvl5If1DKspRyw2ltmq9Snm0q17XRDusRihvPTeZ7OxZ3Q+Mlli5W6L7j6Wc7ecpRKP2z5CI2jBB/Q+PFwA7X1nGViD9XJUiE5yrlWP3nduPYcmKyKenhObpuGpZuqc9OC88wnxqHZ5q+Sg0vlznTzQg7Q7m0gBw7qVw34boJnVlAUiIvIm8r5aXcz6OfG0uMbuaK2GDpRErIpTw8nrhWho7heLFs3XDFK+s8dniuznhh/Wwn+WwTe3eA5y2lfs9S6vXY94QMsU9MLlUGpf7QUmo7LZ4NeN3Vv4+H93xGtDxvh+TspB3Xq9wwXnfS0+73UOoPU7J0nuc+byn1e/G6MeCrGc+MP/d1V6mvxvOXpdRX3RHDy2nvJIm3tWk4Vnb1NC4FpZSa0BjouuTF4N/1wJ3BP2F/US3AnLd7b73dKfaLHYIg5ONcGc7Ow+cagdsY+rsgCJPFr0MphxfsTiADlzGRgYuwl/Hr+iTWcU74mAX2ix2CIAiCIGQzG3tcBEHYHfzo++tKm/pAjD3X2d8vdgiCIAiCYMzUTxUTBGEXSXk9xJ5kv9ghCIIgCIIxMnAZk+vJdep6slUQBEEQ4nSPXjZh7PdvXMdIPAtZyB4XQRAEQRAEQRBmHllxmQDX0+Z8QRAEQRAEQZgGMnAZk+vpVDGQwYsgCIIgCIIwHfbtqWL18s6+vVsQhJ1Dyq8gCIIwa1QLUPenrcX1jay47DOeKz/IH3XgkPNVTtSuTludfUO1AN19gpYD7RnfCFgvw0pnb+g6C8xM+pYL0AGcjDdp1quwEtqxatmw0ZBzoPcBTxYAF36zor9fnqENxxfq8J834bVOcMGCezfg7pR8d64KZ4MsetCG4w04EJN5sgDnU55zr5cM0yS8vSA3jEGb0dM2n09SvzzpAXClBc+vw/lQfvh0W4eb1w4jfHhyuf+8ceJ5HPw6NG1QUt9OldlbcfF121wojxdMrb17nY/z1Qd5qJD9eaK1O3oAHG0/zqPOtd17YAZ+vf+OjWrX/ti7NwrVqaqYi4YCpcBzsmWqIdvqPgl7dzEbUGvHdI3HffwzZnmbNLtZfsEsfXeFtgLHSr/n12EF8AJllYK2DFpmmXNl+HwBzvlAS3//fFq958Nl4PLF/vessBKfMlzwB8s8Vu3L5OVKCzZX4JY1+JzSn6UlOFsK7IrpeHYLljwtd/sWfLEMV9ICtvvhdT+JQYtheLMuZ4wFS+E4cfXlWw7vgn4G6QFwpQ5fXIDL8/Dprmw7NogwtMMIHx4rwfnQ836ZbHuNytuInFoBZzV6rV6GchVkEWb3mKmBi1+Hcgm250C1p62NOUcaj3PafRXss5xWj0c+n7Gnrd10KNZABZVVcz0o1MG7N1xbz2qrxjQ1nDwNDyxL9ydrRXr2OpaeQK9MW0Gr3991bbDd4G8PMrrKwqxhzclAZQ9xYD74vwiU4CBwcC5F0IPXiHbs4p28u9vw6WBgHe4ULs3DZjCIuLsNSzZ6Bjwk88v0ZXLbUNFh/GaoArvtmLbllWdCgi0424Eja3BbkEfvXgM68Pwoszam4c26nCG3NfQA4LbQtQtPBffCjceU9INg0LISrJxkrHgY22HIhVO6bCyFnnfbKhxMscO4vI1Ad7UlvhBea8PaHJTCk7TCjjIbAxcfqmX99usNDxppM62BTHiWuFqHcmymODzrnfCRb/Vnl+vVQKYKfqs/G52a8UL3W2MOq89Xj0dWY06Wj3I+JUxTucv1o5zsyR3nifpNoz+3dTSySnS51Q/7ZPUjfH8Ug21wgOVh+xXi6VtO8SNtRVdxwunWTcdc6Rus7oVXInZr5qRVjeblcjklb+XQz69H5apj7g8x0m/S6cGQ8ht7ZiuWZxJld1rpG468VuzveMLUwxGdlunpL1+WVqCzEk2Y1PqqG2aGsXn0i1e6phmwHER8Ik1S5MLh1cvJxO9eK5Sjsnns8Fs6E0fiuprMZMPsbVUpFAoDP+F8eHO401SEW1KiLszNJXqDGFNuW00ZRMRlGnCvBWdP5Qh4ABeeSQ60rlwMnhXunFbgCMFKUk5Mw5t1uXG40ATs6CBgmvo9vwJYcDznaniaHbmw4Obw30EZiduRt7zlIW21pUulpicAWddVy7j9RGEwUx+4tKpQKAFrepWlmDGbWC3B3Fp/xlgpWES7g4cZ6PJRCWaXO7A5p+WWtqC0DmueXiFoLozfsblcP85D1UOAXo25v9K//jQv8qjXX5H55No1nl4+GvEvzSP35e1LfLK3wvM17uBX+fLKjQl9TMKj8lxvlej59eM8sg7/xP2qll98Y+T4qG0AKwNcpVpQXobVdih923D4VKwzWumvFjTXdbotBasGG4vkT98iHFvVqyLd564BpR12m/LrsA54Xv+5G2uwvhyLI0P9/Dosb8NGrGwsr+ywfpNODwxctoJn2sBCqE7wXNhaiDUYU0pfKo2+kutlHZluEJmLoZ5evQzbi6FMvwEs681JYYq1fqRYTrQSHGUZL49+rEVd09bmYDnue+HrWae1cIZJaeFbVVgmmiDtVThV7meshI9jcE2p5LKgqR20gky3EYvrrWh4JvZWGiilBn4aoTQ5cJhEpyvN7efzC/r72VL/+/kF7QY2sttRjNuWgCZcGDWAVt/1bHMFsKOrMK9vZ//0tbR7zai725OxBsI0vFmXG5mW3ndyZDF6ecf0G5IeXRfGg/N6H0tX9slhk2QZdpjSXcHpre748FhQRuJlyaS8jULWakuEIjTa4K3BekkOl9lJpro5v17WLtvukPa3VYUth0iDAMEodxQ/eKvvP394XntfVIq9W3jEvDEquq0dSvNeHmreq78nXMQO8acr1/i4uhSZBbil8k1OcJSHqoc43bg0ptxVjtTOwPaDPJ37uTFtl17kRO1SSP4SHxz1KOQirNmwUE13D6uvw9JG0gOmsqo7y2mZw1qK7oEohmVypG98oFxZBWvZ1LAUOnqiNk64K3ZqBdZU1N5iBdroSfJwHJnolxZepQZs676cDgjaWe6XsXt59OsyqfTIg+1CrdJ/3pIFF4lml4mnb16W1vpKAlS631uwMg8qoq3upG+nZKA8VBrmfpi59CPIWFU9o9CrkL1kuMVistJc39IHCUQFYXVJL8lWxtjUlGkHUF0IfDUjOVrHde+ReezNQUl39LqdrpstfS3M3W24LXDBWVJwc/A9a2N0BB/OLcNrFiwZRt8Vn9EKXOAy1n3m2SY8uRgdvJhys6Xj5fiqduvp7pvoHk4gjOdelZc86fFasHryaQW0gv0uZG+6n6gdLT1oeQ0SA2fAqLyNwqkVXYWYUAz6i9UyFDbBa4t376SZ6sCl1obDVVgo6E7IoHZhfgKj5h3HPsvpxiUu14/zSHxGw38vf8GtPF94MP231jXgUj456xr3p4gcnAttzjcNL8YHDievjUOlAXYBqot6NSDMdgcW00p2EeY7ejI2njUmkh98qC5DMzzBPe5mDyu5P6senuH39TxvM6tvakVlh+rnw5YFad3U0ii+vXn0CzGN8rk4rCHcifTNy+EMJf2LegSXxtwuKjlIP5pQyDgeyJqjXyor4D6ll8B69y09G9GbomxBZz69BS8ehs5TI6nfI8uO3v0hXQdTe1tVCgsZMgG2G1p1Keq9AF3ujk8eBBuPu65hm6Fyd7YEr2ScwhSWO2jDp3fzhKWituP1Apxfh3sq+tk3D6hv4vsM7m7D3aG/D9Tg3k04O0J4sy43KlnuVTuhn0l69LBCJ3pV9J6qzRW4UEt3BRvbTaxLaNCSeTrZsPI2AnlPEvNbsLwAOCNOrAtDmfpxyJUGqFXdwSisg7sRmxgL2IpPpc4wt9TOcDp+sfhdPsCNfFw9x5FBPzaWe4MPdA7pJdjYrde2b4RuxWQa3i7QcHUaz81Hr89ZcNFPSfcBnfJJUC0BLniVUH/K125rO0YR5tErGsOys5F+AwZ33jb9fLAD+s06U0lfUwZ11rc7+dNt0hSPAdvmKzeRVR4ffA+WS3C4m5EqYAWndCTK+YBB3KRIrWBCmNpbaaAmeapIER5W/SNklxQQ+p7V2Rt0L4vXtwGrv1F7XG6Oja8PBJMXF1qh2fWum9AIExum4c263EgMcK+amn5FuN2C1+ZzDJLHdBPrciVY2QE4ssurcsarLd2JMrTH6qDqRhiPqe9xAfq+gUvaNzC+r7KyCqxAPbaxuhXs89zxjVAT2Zx/lftdeLr8ES5HwriJ86E9MeZyl/g150aerh4KHZ2pZZ6OTAiahjcCoXgxeiFTRbtMrcQmLGtrsLkMfjgMH+rLML82unomzJX6/Sg/qHji+6YmTcPVLvl+LM5a9eQR0Sb6rTqwHt9DXIf1wRPDE9Fv1plG+ppRAWcr5bSIcv+FMqMybHO+EUVw0Y7akTACHcN618u60g5vHkvzz1ib1y5hkXLuw/ImrMWmJjubfbnuaQ6jJtyqAyvL0crbD5273z3y0NTeHeDKFlHf/Phm5DG5UNeDoSNr+VdmzpX1ccrhvTZXQidW9cILZt/Pr/dlz60Dlp61Nwnv4FL+8GZebgQGuldNWD/j9CA4lawJ50KvOBi0ojIJN7Ge25qlj3XezUGL0d4WgrYxtFdbBi07jJo1PKUcWyns5HXbCu9KVcqylfK8kIgTvR/52EopN3rN8ZRy7dB9TykrdK+H27/uelG1vqW+pT5jJ593j3tapf171H1J3ROx46q6x/na6HLO99ShiMwZ9ahzNbDpa7nCS7MD1P/f3v2GxHHncRx/++zoI7U5e2nNJYqBcBgJJkGySxbuKidJCBdKgiDkglddoUe848QHYc9c29ySB1JQQ9NLTS+kgQTPJlRSDOH2+mDFFLnuXqklWLJnwiVFYqz6qOTBcXMPZtR1dkZnd9Vds5+XLOjMd3//Zlz2y29+Mwa+fxn9Rr8RM2LLOz/sMl4OxyI4vHQcfRiGr2eV4+tLLXPYtX1L7Unn+D5Iaj8Yhs9nGMPJx9rreeVSd3J9y8bAMOu2n89B25h4bd9CG322shbbnfS/FHToQ8qx8Ni+NT8emY6zrV8L/VnT45sOp0F2G+ie5EG0Tvoe3/ITxnWgbSdByoEJGsYDh/3ptG/YdmLhM4weW6U9PvPkSIlzqNx+ovpc2pg8Lr6g+cFr/7BJpx8Phs0TILl9wZ7Uur30dx1EfYbxts8wntl+T4nB9rLFOcZgGB/4DOO+0zh78GzYfL+9vKjLsESDSXHB1H48GzaMm/Z2+gzjZoblbZa4dER9hvH2Kp89a9W+dI/Hsx7D+ACPdXvox2puOpzPi3U7/KuvpSDOH2PJenzuH2OyPooMwzBynTxtZnHrpxDUWj8iIrJ2RvzweTX86ZJ12Rjm7yKSG4le2JnG1bKycZS4ZEmJi4iIiIjI+suPNS4iIiIiIiIrUOIiIiIiIiJ5L+e3Q97sCunSqULqq4jIi2jh1steuD4vQ1alcXamcZFsaY2LiIiIiIjkvbRmXKYKYw36ovGXCqPDu3/wNpOyVRMuIiIiIpIjnhOXqXhhJS4TW+JMvFwYHZ75HnbNKHkRERERkfy1oYvzw61wfXr1uJVcPw/NkbVpj4iIiIiIbA4blrg8jsCtADSVbVSNL5axt1o4F2jhymBJrpsiIiIiIrLhsr+r2DRcvwvvPYHYGfewjwegI5x1bTSdgabsi/Ek0d3Cjdvu+2u7L3OkbmPaUnfxMjsHjzO0bjXc4dXzh/kJQR6+eYk5JZgiIiIikkeySlweR+DsAFQ1QuzkynG3AhDbZF+Gqzov0xWo51x0kq7OyWX7Et0tfJujdq2PQ8zuD1I88CEVoQ/ZGuhhquF3SmBEREREJC9klrhMQ/gjuAV8GoZtq3y5XXG2ZaGspLzgjUZI/BOuJM3ghFvN+gBqGuFKfVIZ47C3D6iEjnJ4Lwo1AXh3D5ztg6+BN9ohtNtW9zg0W/v7wuDP4kt6ovs4N24XL/5dXv2Ig6EIVa9lFjc7WM/QhR08AWCe2tP/4ECm9Y7Vc65zB2DOEh2gnqFOs+zyo1/xh9/8j13A8/pL3K/ppOTuKSqiv6ci+jeKG//IVP0hnmcwJiIiIiIiayXtxGX0GrRHzUQgZk8EHKw22xIOQYWtrNHIUpKyINQPIau8s/ZCdkMsDM0h+Pt+iPWbi/iPPbESkqdmYvPrftjmvaspZgeP8/6jOF2dk1R1XqYqafsIcX57Y5JSK2GYHdvHULgeLkYyiht6FOdX0QilAJSQGHydoQvFcHp5e7yUR12Erqh16dvV48SZ55fdN2mum2N2rBJYSnwoq2Lu5ChzDXeo+OjPlAwcpmTAx1z7Vf5bW4WIiIiISC6ktTj/+nlofwJ9/Q6zFy4+HoCOBud9o9cg0QhNtrL89Suvl3FVuTQTs70cavZbsyivQA3wH3v8brjSbyY6K8623P4F5wItvH+h2GFnJV9cmOdg51LyAFBa9yXNp+BGd2XmcYtRc1Sd+ISDRzOpd7nyn8fpuhihrm7Oip/kFafAskM8PDPK/UYfcI+Svp38uLnXsUwRERERkfWW1oxL0xnYfg3aW10uvbLxsralyvFbc545+jldnZPWjItt33elTLODeKDF+b3V88BkenHV8xxxCCndMZ9+vTZlP03d5mjamnGZvAeYMy7PT1Wx1du7RURERETWVNqXivlPQqzBXJey9zPoe9N9tsLLncQSTwGPsze5VnriE7rsG1/7N2UUczCadGmWE89xs5R9U0kCUuJmHxXDjjTLS9d0wlrjYiUsjcOLa1yUtIiIiIhIrmT2HJcyCJ2BT/fD5RCEHR4I6eW5Lf4GYACujydtnDbXuDS3wmiWD6tc1bhZz96s6prjSDeMvLWP2e+St5eQGDzOucVLtrzGTXLgdDEj3ZXM2mJGlt2a2Wt53v0o0sbPQjupiN7jeaCHh+FRHmphvoiIiIjkgSLDMAwvgVNx85Vi4TkuLL8lcrgVKsIeHjjpcFexmgC827B0t7LHETg24PL+AMT2WHcVs3SEYftd8yYCBMwZouaQefewjuQ2rXBXsYktcT77a23Kc1zcnt0yO7aPL67uIf7NwpZ5ak/HOXJiMrM4x7uKvW6us7EuXfNanuvzaKq/ouvil+z6vpZdM0959fxhigky5fIcl6215ktEREREZKNln7g4eByBY1MrP9sl301siTPxsscOb3Jm4rJ6RqLERURERERyJasHULrZVg+x9ShYREREREQKUmZrXERERERERDaQEhcREREREcl7nte4gPc1Li+K8ZcKo8O7f/C2cEXrW0REREQkV9JKXERERERERHJhXRbn57s4hTGTUoumSERERETkxVBwiUvc+ikUSl5ERERE5EWQN4vze/3g7811K0REREREJB/lTeJSqCL+FlqLWjjfW5LrpmTHXwRFRdCbcN7f22buX3j528AlVNI3cwdGeuGWH97xw8wKsSNt8E6R+fpLm3tsLuJy2Y90zNyx2miV69TWNW1fYnl9q/XDS/tEREQ2m/8D3F4N5TCogU0AAAAASUVORK5CYII=;" vertex="1" parent="1">
          <mxGeometry x="655" y="310" width="358.36" height="70" as="geometry" />
        </mxCell>
      </root>
    </mxGraphModel>
  </diagram>
</mxfile>
